<svg version="1.1" viewBox="0.0 0.0 600.0 371.0" fill="none" stroke="none" stroke-linecap="square" stroke-miterlimit="10" width="600" height="371" xmlns:xlink="http://www.w3.org/1999/xlink" xmlns="http://www.w3.org/2000/svg"><path fill="#25a4d6" d="M0 0L600.0 0L600.0 371.0L0 371.0L0 0Z" fill-rule="nonzero"/><path fill="#ae7b16" d="M300.0 114.42333C311.7082 114.42333 323.3434 115.71332 334.47858 118.24594L334.47858 140.56094C323.3434 138.02832 311.7082 136.73833 300.0 136.73833Z" fill-rule="nonzero"/><path fill="#f9af1f" d="M300.0 88.38917C315.61093 88.38917 331.12457 90.10915 345.97144 93.48598L334.47858 118.24594C323.3434 115.71332 311.7082 114.42333 300.0 114.42333Z" fill-rule="nonzero"/><path fill="#b03d29" d="M334.47858 118.24594C336.7012 118.751465 338.9006 119.30575 341.0735 119.90797L341.0735 142.22296C338.9006 141.62074 336.7012 141.06647 334.47858 140.56094Z" fill-rule="nonzero"/><path fill="#fb573b" d="M345.97144 93.48598C348.93494 94.16001 351.86746 94.89905 354.76465 95.70201L341.0735 119.90797C338.9006 119.30575 336.7012 118.751465 334.47858 118.24594Z" fill-rule="nonzero"/><path fill="#89022a" d="M341.0735 119.90797C347.5965 121.71581 353.86136 123.95029 359.78488 126.58171L359.78488 148.89671C353.86136 146.26529 347.5965 144.0308 341.0735 142.22296Z" fill-rule="nonzero"/><path fill="#c4033c" d="M354.76465 95.70201C363.46198 98.11247 371.81516 101.091774 379.71317 104.600334L359.78488 126.58171C353.86136 123.95029 347.5965 121.71581 341.0735 119.90797Z" fill-rule="nonzero"/><path fill="#630a2c" d="M359.78488 126.58171C361.7581 127.458275 363.69147 128.37802 365.58215 129.33958L365.58215 151.65459C363.69147 150.69302 361.7581 149.77327 359.78488 148.89671Z" fill-rule="nonzero"/><path fill="#8e0e3f" d="M379.71317 104.600334C382.34412 105.76909 384.92194 106.995415 387.44284 108.277504L365.58215 129.33958C363.69147 128.37802 361.7581 127.458275 359.78488 126.58171Z" fill-rule="nonzero"/><path fill="#65a0a8" d="M448.76666 214.84084C448.76666 262.37943 402.77545 303.88348 336.99677 315.70584L336.99677 293.39087C402.77545 281.56848 448.76666 240.06444 448.76666 192.52583Z" fill-rule="nonzero"/><path fill="#65a0a8" d="M365.58215 129.33958C394.47678 144.0348 411.575 167.52483 411.575 192.52583L411.575 214.84084C411.575 189.83983 394.47678 166.34981 365.58215 151.65459Z" fill-rule="nonzero"/><path fill="#90e5f0" d="M387.44284 108.277504C434.06458 131.98836 456.92993 172.41429 446.1316 212.0391C435.33325 251.66391 392.8139 283.35886 336.99677 293.39087L327.7476 268.1746C369.61044 260.6506 401.49994 236.8794 409.5987 207.16078C417.69745 177.44217 400.54843 147.12273 365.58215 129.33958Z" fill-rule="nonzero"/><path fill="#47378d" d="M185.3733 281.22003C163.3066 262.5482 151.23334 239.07384 151.23334 214.84084L151.23334 192.52583C151.23334 216.75885 163.3066 240.23318 185.3733 258.90503Z" fill-rule="nonzero"/><path fill="#47378d" d="M188.425 192.52583C188.425 149.391 238.37883 114.42333 300.0 114.42333L300.0 136.73833C238.37883 136.73833 188.425 171.70601 188.425 214.84084Z" fill-rule="nonzero"/><path fill="#664fc9" d="M185.3733 258.90503C148.64009 227.82306 140.85526 184.68672 165.39189 148.1866C189.92854 111.68648 242.37239 88.38917 300.0 88.38917L300.0 114.42333C256.7793 114.42333 217.44641 131.89632 199.04391 159.27141C180.64143 186.6465 186.48007 218.99875 214.02998 242.31024Z" fill-rule="nonzero"/><path fill="#439e5a" d="M336.99677 315.70584C281.17963 325.73785 222.10654 312.30203 185.3733 281.22003L185.3733 258.90503C222.10654 289.98703 281.17963 303.42285 336.99677 293.39087Z" fill-rule="nonzero"/><path fill="#5fe281" d="M336.99677 293.39087C281.17963 303.42285 222.10654 289.98703 185.3733 258.90503L214.02998 242.31024C241.57991 265.62173 285.88474 275.69858 327.7476 268.1746Z" fill-rule="nonzero"/><path fill="#ffffff" d="M24.253124 142.13794L20.659374 142.13794L20.659374 145.90356L19.534374 145.90356L19.534374 137.37231L24.83125 137.37231L24.83125 138.29419L20.659374 138.29419L20.659374 141.21606L24.253124 141.21606L24.253124 142.13794ZM26.08125 142.66919Q26.08125 141.74731 26.440624 140.99731Q26.815624 140.24731 27.471874 139.85669Q28.128124 139.45044 28.95625 139.45044Q30.253124 139.45044 31.05 140.34106Q31.8625 141.23169 31.8625 142.73169L31.8625 142.80981Q31.8625 143.73169 31.503124 144.46606Q31.14375 145.20044 30.4875 145.62231Q29.83125 146.02856 28.971874 146.02856Q27.690624 146.02856 26.878124 145.13794Q26.08125 144.23169 26.08125 142.74731L26.08125 142.66919ZM27.175 142.80981Q27.175 143.85669 27.659374 144.49731Q28.159374 145.13794 28.971874 145.13794Q29.8 145.13794 30.284374 144.49731Q30.76875 143.84106 30.76875 142.66919Q30.76875 141.63794 30.26875 140.99731Q29.784374 140.34106 28.95625 140.34106Q28.159374 140.34106 27.659374 140.98169Q27.175 141.60669 27.175 142.80981ZM37.284374 145.27856Q36.659374 146.02856 35.425 146.02856Q34.409374 146.02856 33.878124 145.43481Q33.346874 144.84106 33.346874 143.68481L33.346874 139.55981L34.425 139.55981L34.425 143.65356Q34.425 145.10669 35.596874 145.10669Q36.846874 145.10669 37.253124 144.16919L37.253124 139.55981L38.346874 139.55981L38.346874 145.90356L37.315624 145.90356L37.284374 145.27856ZM41.39375 139.55981L41.425 140.35669Q42.159374 139.45044 43.33125 139.45044Q45.346874 139.45044 45.3625 141.71606L45.3625 145.90356L44.26875 145.90356L44.26875 141.70044Q44.26875 141.02856 43.95625 140.70044Q43.659374 140.37231 43.003124 140.37231Q42.471874 140.37231 42.065624 140.65356Q41.675 140.93481 41.45625 141.38794L41.45625 145.90356L40.378124 145.90356L40.378124 139.55981L41.39375 139.55981ZM47.1125 142.68481Q47.1125 141.21606 47.8 140.34106Q48.4875 139.45044 49.6125 139.45044Q50.721874 139.45044 51.378124 140.20044L51.378124 136.90356L52.45625 136.90356L52.45625 145.90356L51.45625 145.90356L51.409374 145.21606Q50.753124 146.02856 49.596874 146.02856Q48.503124 146.02856 47.8 145.12231Q47.1125 144.21606 47.1125 142.76294L47.1125 142.68481ZM48.190624 142.80981Q48.190624 143.88794 48.628124 144.49731Q49.08125 145.10669 49.8625 145.10669Q50.89375 145.10669 51.378124 144.16919L51.378124 141.26294Q50.89375 140.37231 49.878124 140.37231Q49.08125 140.37231 48.628124 140.98169Q48.190624 141.59106 48.190624 142.80981ZM58.284374 145.90356Q58.190624 145.71606 58.128124 145.23169Q57.378124 146.02856 56.33125 146.02856Q55.39375 146.02856 54.784374 145.49731Q54.190624 144.96606 54.190624 144.13794Q54.190624 143.15356 54.940624 142.60669Q55.690624 142.05981 57.065624 142.05981L58.1125 142.05981L58.1125 141.55981Q58.1125 140.99731 57.76875 140.66919Q57.440624 140.32544 56.76875 140.32544Q56.190624 140.32544 55.8 140.62231Q55.409374 140.90356 55.409374 141.32544L54.315624 141.32544Q54.315624 140.84106 54.64375 140.40356Q54.9875 139.96606 55.565624 139.71606Q56.14375 139.45044 56.83125 139.45044Q57.940624 139.45044 58.55 139.99731Q59.175 140.54419 59.20625 141.49731L59.20625 144.41919Q59.20625 145.29419 59.425 145.80981L59.425 145.90356L58.284374 145.90356ZM56.4875 145.07544Q57.003124 145.07544 57.45625 144.80981Q57.909374 144.54419 58.1125 144.12231L58.1125 142.82544L57.26875 142.82544Q55.26875 142.82544 55.26875 143.99731Q55.26875 144.49731 55.6125 144.79419Q55.95625 145.07544 56.4875 145.07544ZM62.846874 138.02856L62.846874 139.55981L64.01875 139.55981L64.01875 140.40356L62.846874 140.40356L62.846874 144.32544Q62.846874 144.71606 63.003124 144.90356Q63.159374 145.09106 63.534374 145.09106Q63.721874 145.09106 64.05 145.02856L64.05 145.90356Q63.628124 146.02856 63.221874 146.02856Q62.503124 146.02856 62.128124 145.59106Q61.753124 145.13794 61.753124 144.32544L61.753124 140.40356L60.596874 140.40356L60.596874 139.55981L61.753124 139.55981L61.753124 138.02856L62.846874 138.02856ZM66.55 145.90356L65.47188 145.90356L65.47188 139.55981L66.55 139.55981L66.55 145.90356ZM65.37813 137.88794Q65.37813 137.62231 65.53438 137.43481Q65.70625 137.24731 66.01875 137.24731Q66.33125 137.24731 66.4875 137.43481Q66.65938 137.62231 66.65938 137.88794Q66.65938 138.13794 66.4875 138.32544Q66.33125 138.49731 66.01875 138.49731Q65.70625 138.49731 65.53438 138.32544Q65.37813 138.13794 65.37813 137.88794ZM68.08125 142.66919Q68.08125 141.74731 68.44063 140.99731Q68.81563 140.24731 69.47188 139.85669Q70.12813 139.45044 70.95625 139.45044Q72.25313 139.45044 73.05 140.34106Q73.8625 141.23169 73.8625 142.73169L73.8625 142.80981Q73.8625 143.73169 73.50313 144.46606Q73.14375 145.20044 72.4875 145.62231Q71.83125 146.02856 70.97188 146.02856Q69.69063 146.02856 68.87813 145.13794Q68.08125 144.23169 68.08125 142.74731L68.08125 142.66919ZM69.175 142.80981Q69.175 143.85669 69.65938 144.49731Q70.15938 145.13794 70.97188 145.13794Q71.8 145.13794 72.28438 144.49731Q72.76875 143.84106 72.76875 142.66919Q72.76875 141.63794 72.26875 140.99731Q71.78438 140.34106 70.95625 140.34106Q70.15938 140.34106 69.65938 140.98169Q69.175 141.60669 69.175 142.80981ZM76.39375 139.55981L76.425 140.35669Q77.15938 139.45044 78.33125 139.45044Q80.34688 139.45044 80.3625 141.71606L80.3625 145.90356L79.26875 145.90356L79.26875 141.70044Q79.26875 141.02856 78.95625 140.70044Q78.65938 140.37231 78.00313 140.37231Q77.47188 140.37231 77.06563 140.65356Q76.675 140.93481 76.45625 141.38794L76.45625 145.90356L75.37813 145.90356L75.37813 139.55981L76.39375 139.55981ZM85.33125 142.43481Q85.33125 141.12231 85.675 139.90356Q86.03438 138.68481 86.7375 137.68481Q87.44063 136.68481 88.20625 136.27856L88.425 136.99731Q87.56563 137.65356 87.01875 138.99731Q86.47188 140.34106 86.425 142.01294L86.40938 142.51294Q86.40938 144.77856 87.2375 146.43481Q87.7375 147.43481 88.425 147.99731L88.20625 148.65356Q87.425 148.23169 86.70625 147.20044Q85.33125 145.21606 85.33125 142.43481ZM95.81563 143.20044Q95.65938 144.54419 94.81563 145.29419Q93.97188 146.02856 92.58125 146.02856Q91.06563 146.02856 90.15938 144.95044Q89.25313 143.85669 89.25313 142.02856L89.25313 141.21606Q89.25313 140.02856 89.675 139.12231Q90.09688 138.21606 90.87813 137.73169Q91.65938 137.24731 92.675 137.24731Q94.03438 137.24731 94.84688 138.01294Q95.675 138.77856 95.81563 140.10669L94.69063 140.10669Q94.53438 139.09106 94.05 138.63794Q93.56563 138.18481 92.675 138.18481Q91.59688 138.18481 90.9875 138.98169Q90.37813 139.77856 90.37813 141.24731L90.37813 142.07544Q90.37813 143.46606 90.95625 144.29419Q91.53438 145.10669 92.58125 145.10669Q93.51875 145.10669 94.01875 144.68481Q94.51875 144.24731 94.69063 143.20044L95.81563 143.20044ZM100.44063 140.52856Q100.19063 140.49731 99.90938 140.49731Q98.83125 140.49731 98.45625 141.40356L98.45625 145.90356L97.37813 145.90356L97.37813 139.55981L98.425 139.55981L98.44063 140.29419Q98.97188 139.45044 99.95625 139.45044Q100.26875 139.45044 100.44063 139.52856L100.44063 140.52856ZM104.00313 146.02856Q102.70625 146.02856 101.89375 145.18481Q101.09688 144.32544 101.09688 142.90356L101.09688 142.71606Q101.09688 141.76294 101.45625 141.02856Q101.81563 140.27856 102.45625 139.87231Q103.1125 139.45044 103.8625 139.45044Q105.09688 139.45044 105.78438 140.26294Q106.47188 141.07544 106.47188 142.59106L106.47188 143.04419L102.175 143.04419Q102.20625 143.98169 102.72188 144.55981Q103.25313 145.13794 104.06563 145.13794Q104.62813 145.13794 105.01875 144.90356Q105.425 144.66919 105.7375 144.27856L106.39375 144.79419Q105.59688 146.02856 104.00313 146.02856ZM103.8625 140.34106Q103.20625 140.34106 102.75313 140.82544Q102.31563 141.29419 102.22188 142.15356L105.39375 142.15356L105.39375 142.07544Q105.34688 141.24731 104.94063 140.79419Q104.55 140.34106 103.8625 140.34106ZM111.28438 145.90356Q111.19063 145.71606 111.12813 145.23169Q110.37813 146.02856 109.33125 146.02856Q108.39375 146.02856 107.78438 145.49731Q107.19063 144.96606 107.19063 144.13794Q107.19063 143.15356 107.94063 142.60669Q108.69063 142.05981 110.06563 142.05981L111.1125 142.05981L111.1125 141.55981Q111.1125 140.99731 110.76875 140.66919Q110.44063 140.32544 109.76875 140.32544Q109.19063 140.32544 108.8 140.62231Q108.40938 140.90356 108.40938 141.32544L107.31563 141.32544Q107.31563 140.84106 107.64375 140.40356Q107.9875 139.96606 108.56563 139.71606Q109.14375 139.45044 109.83125 139.45044Q110.94063 139.45044 111.55 139.99731Q112.175 140.54419 112.20625 141.49731L112.20625 144.41919Q112.20625 145.29419 112.425 145.80981L112.425 145.90356L111.28438 145.90356ZM109.4875 145.07544Q110.00313 145.07544 110.45625 144.80981Q110.90938 144.54419 111.1125 144.12231L111.1125 142.82544L110.26875 142.82544Q108.26875 142.82544 108.26875 143.99731Q108.26875 144.49731 108.6125 144.79419Q108.95625 145.07544 109.4875 145.07544ZM115.84688 138.02856L115.84688 139.55981L117.01875 139.55981L117.01875 140.40356L115.84688 140.40356L115.84688 144.32544Q115.84688 144.71606 116.00313 144.90356Q116.15938 145.09106 116.53438 145.09106Q116.72188 145.09106 117.05 145.02856L117.05 145.90356Q116.62813 146.02856 116.22188 146.02856Q115.50313 146.02856 115.12813 145.59106Q114.75313 145.13794 114.75313 144.32544L114.75313 140.40356L113.59688 140.40356L113.59688 139.55981L114.75313 139.55981L114.75313 138.02856L115.84688 138.02856ZM118.08125 142.66919Q118.08125 141.74731 118.44063 140.99731Q118.81563 140.24731 119.47188 139.85669Q120.12813 139.45044 120.95625 139.45044Q122.25313 139.45044 123.05 140.34106Q123.8625 141.23169 123.8625 142.73169L123.8625 142.80981Q123.8625 143.73169 123.50313 144.46606Q123.14375 145.20044 122.4875 145.62231Q121.83125 146.02856 120.97188 146.02856Q119.69063 146.02856 118.87813 145.13794Q118.08125 144.23169 118.08125 142.74731L118.08125 142.66919ZM119.175 142.80981Q119.175 143.85669 119.65938 144.49731Q120.15938 145.13794 120.97188 145.13794Q121.8 145.13794 122.28438 144.49731Q122.76875 143.84106 122.76875 142.66919Q122.76875 141.63794 122.26875 140.99731Q121.78438 140.34106 120.95625 140.34106Q120.15938 140.34106 119.65938 140.98169Q119.175 141.60669 119.175 142.80981ZM128.44063 140.52856Q128.19063 140.49731 127.90938 140.49731Q126.83125 140.49731 126.45625 141.40356L126.45625 145.90356L125.37813 145.90356L125.37813 139.55981L126.425 139.55981L126.44063 140.29419Q126.97188 139.45044 127.95625 139.45044Q128.26875 139.45044 128.44063 139.52856L128.44063 140.52856ZM133.06563 144.21606Q133.06563 143.77856 132.72188 143.54419Q132.39375 143.29419 131.56563 143.12231Q130.75313 142.95044 130.26875 142.70044Q129.78438 142.45044 129.55 142.12231Q129.33125 141.77856 129.33125 141.30981Q129.33125 140.52856 129.9875 139.99731Q130.64375 139.45044 131.675 139.45044Q132.75313 139.45044 133.40938 140.01294Q134.08125 140.55981 134.08125 141.41919L133.00313 141.41919Q133.00313 140.98169 132.6125 140.66919Q132.2375 140.34106 131.675 140.34106Q131.08125 140.34106 130.7375 140.60669Q130.40938 140.85669 130.40938 141.26294Q130.40938 141.65356 130.72188 141.85669Q131.03438 142.05981 131.84688 142.24731Q132.65938 142.41919 133.15938 142.66919Q133.65938 142.91919 133.89375 143.27856Q134.14375 143.63794 134.14375 144.13794Q134.14375 144.99731 133.45625 145.51294Q132.78438 146.02856 131.70625 146.02856Q130.94063 146.02856 130.34688 145.76294Q129.76875 145.48169 129.44063 144.99731Q129.1125 144.51294 129.1125 143.95044L130.19063 143.95044Q130.22188 144.49731 130.62813 144.82544Q131.03438 145.13794 131.70625 145.13794Q132.31563 145.13794 132.69063 144.88794Q133.06563 144.63794 133.06563 144.21606ZM137.87813 142.49731Q137.87813 143.80981 137.53438 145.01294Q137.19063 146.20044 136.47188 147.21606Q135.76875 148.23169 135.00313 148.65356L134.76875 147.99731Q135.675 147.30981 136.22188 145.85669Q136.76875 144.38794 136.78438 142.62231L136.78438 142.43481Q136.78438 141.20044 136.51875 140.13794Q136.26875 139.07544 135.8 138.24731Q135.34688 137.40356 134.76875 136.93481L135.00313 136.27856Q135.76875 136.70044 136.47188 137.70044Q137.175 138.70044 137.51875 139.91919Q137.87813 141.12231 137.87813 142.49731Z" fill-rule="nonzero"/><path fill="#ccddee" d="M20.83125 159.10669L21.64375 159.10669Q22.425 159.09106 22.8625 158.70044Q23.3 158.30981 23.3 157.63794Q23.3 156.13794 21.8 156.13794Q21.096874 156.13794 20.675 156.54419Q20.26875 156.95044 20.26875 157.60669L19.175 157.60669Q19.175 156.59106 19.909374 155.91919Q20.659374 155.24731 21.8 155.24731Q23.003124 155.24731 23.690624 155.88794Q24.378124 156.52856 24.378124 157.66919Q24.378124 158.23169 24.01875 158.74731Q23.659374 159.26294 23.034374 159.52856Q23.7375 159.74731 24.1125 160.26294Q24.503124 160.77856 24.503124 161.52856Q24.503124 162.66919 23.753124 163.35669Q23.003124 164.02856 21.8 164.02856Q20.6125 164.02856 19.846874 163.37231Q19.096874 162.71606 19.096874 161.65356L20.190624 161.65356Q20.190624 162.32544 20.628124 162.73169Q21.065624 163.13794 21.815624 163.13794Q22.596874 163.13794 23.003124 162.73169Q23.425 162.30981 23.425 161.54419Q23.425 160.80981 22.971874 160.41919Q22.51875 160.01294 21.64375 159.99731L20.83125 159.99731L20.83125 159.10669ZM30.51875 155.37231L30.51875 156.27856L30.315624 156.27856Q29.05 156.30981 28.3 157.04419Q27.55 157.76294 27.425 159.07544Q28.1125 158.30981 29.26875 158.30981Q30.378124 158.30981 31.05 159.09106Q31.721874 159.87231 31.721874 161.12231Q31.721874 162.43481 31.003124 163.23169Q30.284374 164.02856 29.065624 164.02856Q27.846874 164.02856 27.08125 163.09106Q26.33125 162.13794 26.33125 160.65356L26.33125 160.24731Q26.33125 157.88794 27.33125 156.63794Q28.33125 155.38794 30.315624 155.37231L30.51875 155.37231ZM29.096874 159.21606Q28.534374 159.21606 28.065624 159.54419Q27.596874 159.87231 27.409374 160.38794L27.409374 160.77856Q27.409374 161.84106 27.878124 162.48169Q28.3625 163.12231 29.065624 163.12231Q29.8 163.12231 30.221874 162.59106Q30.64375 162.04419 30.64375 161.16919Q30.64375 160.29419 30.221874 159.76294Q29.8 159.21606 29.096874 159.21606ZM33.39375 163.34106Q33.39375 163.05981 33.55 162.87231Q33.721874 162.68481 34.05 162.68481Q34.39375 162.68481 34.565624 162.87231Q34.7375 163.05981 34.7375 163.34106Q34.7375 163.60669 34.565624 163.79419Q34.39375 163.96606 34.05 163.96606Q33.721874 163.96606 33.55 163.79419Q33.39375 163.60669 33.39375 163.34106ZM41.6125 160.26294Q41.6125 162.16919 40.95625 163.10669Q40.315624 164.02856 38.925 164.02856Q37.565624 164.02856 36.909374 163.12231Q36.253124 162.21606 36.221874 160.40356L36.221874 158.96606Q36.221874 157.07544 36.8625 156.16919Q37.51875 155.24731 38.909374 155.24731Q40.284374 155.24731 40.940624 156.13794Q41.596874 157.01294 41.6125 158.85669L41.6125 160.26294ZM40.51875 158.77856Q40.51875 157.40356 40.128124 156.77856Q39.753124 156.13794 38.909374 156.13794Q38.08125 156.13794 37.690624 156.77856Q37.315624 157.40356 37.315624 158.70044L37.315624 160.43481Q37.315624 161.80981 37.70625 162.48169Q38.1125 163.13794 38.925 163.13794Q39.721874 163.13794 40.1125 162.51294Q40.503124 161.88794 40.51875 160.55981L40.51875 158.77856ZM43.159374 157.01294Q43.159374 156.24731 43.64375 155.74731Q44.14375 155.24731 44.909374 155.24731Q45.690624 155.24731 46.175 155.74731Q46.659374 156.24731 46.659374 157.04419L46.659374 157.46606Q46.659374 158.23169 46.159374 158.73169Q45.675 159.21606 44.925 159.21606Q44.159374 159.21606 43.659374 158.73169Q43.159374 158.23169 43.159374 157.41919L43.159374 157.01294ZM43.971874 157.46606Q43.971874 157.91919 44.221874 158.21606Q44.4875 158.51294 44.925 158.51294Q45.346874 158.51294 45.596874 158.23169Q45.846874 157.93481 45.846874 157.43481L45.846874 157.01294Q45.846874 156.55981 45.596874 156.26294Q45.346874 155.95044 44.909374 155.95044Q44.471874 155.95044 44.221874 156.26294Q43.971874 156.55981 43.971874 157.02856L43.971874 157.46606ZM47.315624 161.80981Q47.315624 161.04419 47.8 160.55981Q48.3 160.05981 49.065624 160.05981Q49.83125 160.05981 50.315624 160.55981Q50.815624 161.04419 50.815624 161.85669L50.815624 162.26294Q50.815624 163.02856 50.33125 163.52856Q49.846874 164.02856 49.08125 164.02856Q48.315624 164.02856 47.815624 163.54419Q47.315624 163.04419 47.315624 162.23169L47.315624 161.80981ZM48.128124 162.26294Q48.128124 162.73169 48.378124 163.02856Q48.64375 163.32544 49.08125 163.32544Q49.503124 163.32544 49.753124 163.04419Q50.003124 162.74731 50.003124 162.24731L50.003124 161.80981Q50.003124 161.34106 49.7375 161.05981Q49.4875 160.76294 49.065624 160.76294Q48.64375 160.76294 48.378124 161.05981Q48.128124 161.34106 48.128124 161.84106L48.128124 162.26294ZM45.175 163.26294L44.55 162.87231L48.721874 156.20044L49.33125 156.59106L45.175 163.26294Z" fill-rule="nonzero"/><path stroke="#ccddee" stroke-width="1.0" stroke-linecap="butt" d="M18.55 150.40356L145.23334 150.40356L172.1223 150.40356" fill-rule="nonzero"/><path fill="#ccddee" d="M174.1223 150.40356C174.1223 149.299 173.22687 148.40356 172.1223 148.40356C171.01773 148.40356 170.1223 149.299 170.1223 150.40356C170.1223 151.50813 171.01773 152.40356 172.1223 152.40356C173.22687 152.40356 174.1223 151.50813 174.1223 150.40356" fill-rule="nonzero"/><path fill="#ffffff" d="M25.846874 280.9887Q25.409374 281.6137 24.628124 281.9262Q23.846874 282.2387 22.815624 282.2387Q21.784374 282.2387 20.971874 281.75433Q20.159374 281.25433 19.721874 280.34808Q19.284374 279.44183 19.26875 278.25433L19.26875 277.51996Q19.26875 275.58246 20.159374 274.51996Q21.065624 273.45746 22.690624 273.45746Q24.034374 273.45746 24.846874 274.14496Q25.659374 274.83246 25.846874 276.08246L24.721874 276.08246Q24.39375 274.39496 22.70625 274.39496Q21.565624 274.39496 20.9875 275.19183Q20.409374 275.97308 20.39375 277.4887L20.39375 278.1762Q20.39375 279.6137 21.05 280.47308Q21.70625 281.31683 22.83125 281.31683Q23.45625 281.31683 23.925 281.1762Q24.409374 281.03558 24.721874 280.69183L24.721874 278.78558L22.753124 278.78558L22.753124 277.8637L25.846874 277.8637L25.846874 280.9887ZM27.08125 278.87933Q27.08125 277.95746 27.440624 277.20746Q27.815624 276.45746 28.471874 276.06683Q29.128124 275.66058 29.95625 275.66058Q31.253124 275.66058 32.05 276.5512Q32.8625 277.44183 32.8625 278.94183L32.8625 279.01996Q32.8625 279.94183 32.503124 280.6762Q32.14375 281.41058 31.4875 281.83246Q30.83125 282.2387 29.971874 282.2387Q28.690624 282.2387 27.878124 281.34808Q27.08125 280.44183 27.08125 278.95746L27.08125 278.87933ZM28.175 279.01996Q28.175 280.06683 28.659374 280.70746Q29.159374 281.34808 29.971874 281.34808Q30.8 281.34808 31.284374 280.70746Q31.76875 280.0512 31.76875 278.87933Q31.76875 277.84808 31.26875 277.20746Q30.784374 276.5512 29.95625 276.5512Q29.159374 276.5512 28.659374 277.19183Q28.175 277.81683 28.175 279.01996ZM36.45625 280.64496L38.034374 275.76996L39.14375 275.76996L36.8625 282.1137L36.034374 282.1137L33.7375 275.76996L34.846874 275.76996L36.45625 280.64496ZM43.003124 282.2387Q41.70625 282.2387 40.89375 281.39496Q40.096874 280.53558 40.096874 279.1137L40.096874 278.9262Q40.096874 277.97308 40.45625 277.2387Q40.815624 276.4887 41.45625 276.08246Q42.1125 275.66058 42.8625 275.66058Q44.096874 275.66058 44.784374 276.47308Q45.471874 277.28558 45.471874 278.8012L45.471874 279.25433L41.175 279.25433Q41.20625 280.19183 41.721874 280.76996Q42.253124 281.34808 43.065624 281.34808Q43.628124 281.34808 44.01875 281.1137Q44.425 280.87933 44.7375 280.4887L45.39375 281.00433Q44.596874 282.2387 43.003124 282.2387ZM42.8625 276.5512Q42.20625 276.5512 41.753124 277.03558Q41.315624 277.50433 41.221874 278.3637L44.39375 278.3637L44.39375 278.28558Q44.346874 277.45746 43.940624 277.00433Q43.55 276.5512 42.8625 276.5512ZM49.440624 276.7387Q49.190624 276.70746 48.909374 276.70746Q47.83125 276.70746 47.45625 277.6137L47.45625 282.1137L46.378124 282.1137L46.378124 275.76996L47.425 275.76996L47.440624 276.50433Q47.971874 275.66058 48.95625 275.66058Q49.26875 275.66058 49.440624 275.7387L49.440624 276.7387ZM51.39375 275.76996L51.425 276.56683Q52.159374 275.66058 53.33125 275.66058Q55.346874 275.66058 55.3625 277.9262L55.3625 282.1137L54.26875 282.1137L54.26875 277.91058Q54.26875 277.2387 53.95625 276.91058Q53.659374 276.58246 53.003124 276.58246Q52.471874 276.58246 52.065624 276.8637Q51.675 277.14496 51.45625 277.59808L51.45625 282.1137L50.378124 282.1137L50.378124 275.76996L51.39375 275.76996ZM61.284374 282.1137Q61.190624 281.9262 61.128124 281.44183Q60.378124 282.2387 59.33125 282.2387Q58.39375 282.2387 57.784374 281.70746Q57.190624 281.1762 57.190624 280.34808Q57.190624 279.3637 57.940624 278.81683Q58.690624 278.26996 60.065624 278.26996L61.1125 278.26996L61.1125 277.76996Q61.1125 277.20746 60.76875 276.87933Q60.440624 276.53558 59.76875 276.53558Q59.190624 276.53558 58.8 276.83246Q58.409374 277.1137 58.409374 277.53558L57.315624 277.53558Q57.315624 277.0512 57.64375 276.6137Q57.9875 276.1762 58.565624 275.9262Q59.14375 275.66058 59.83125 275.66058Q60.940624 275.66058 61.55 276.20746Q62.175 276.75433 62.20625 277.70746L62.20625 280.62933Q62.20625 281.50433 62.425 282.01996L62.425 282.1137L61.284374 282.1137ZM59.4875 281.28558Q60.003124 281.28558 60.45625 281.01996Q60.909374 280.75433 61.1125 280.33246L61.1125 279.03558L60.26875 279.03558Q58.26875 279.03558 58.26875 280.20746Q58.26875 280.70746 58.6125 281.00433Q58.95625 281.28558 59.4875 281.28558ZM65.39375 275.76996L65.425 276.56683Q66.15938 275.66058 67.33125 275.66058Q69.34688 275.66058 69.3625 277.9262L69.3625 282.1137L68.26875 282.1137L68.26875 277.91058Q68.26875 277.2387 67.95625 276.91058Q67.65938 276.58246 67.00313 276.58246Q66.47188 276.58246 66.06563 276.8637Q65.675 277.14496 65.45625 277.59808L65.45625 282.1137L64.37813 282.1137L64.37813 275.76996L65.39375 275.76996ZM73.90938 281.34808Q74.4875 281.34808 74.925 281.00433Q75.3625 280.64496 75.40938 280.1137L76.44063 280.1137Q76.40938 280.66058 76.05 281.16058Q75.70625 281.64496 75.12813 281.94183Q74.56563 282.2387 73.90938 282.2387Q72.6125 282.2387 71.84688 281.37933Q71.09688 280.50433 71.09688 279.00433L71.09688 278.81683Q71.09688 277.89496 71.425 277.1762Q71.76875 276.45746 72.39375 276.06683Q73.03438 275.66058 73.90938 275.66058Q74.97188 275.66058 75.675 276.3012Q76.39375 276.9262 76.44063 277.95746L75.40938 277.95746Q75.3625 277.33246 74.94063 276.94183Q74.51875 276.5512 73.90938 276.5512Q73.08125 276.5512 72.62813 277.14496Q72.175 277.7387 72.175 278.8637L72.175 279.06683Q72.175 280.16058 72.62813 280.75433Q73.08125 281.34808 73.90938 281.34808ZM80.00313 282.2387Q78.70625 282.2387 77.89375 281.39496Q77.09688 280.53558 77.09688 279.1137L77.09688 278.9262Q77.09688 277.97308 77.45625 277.2387Q77.81563 276.4887 78.45625 276.08246Q79.1125 275.66058 79.8625 275.66058Q81.09688 275.66058 81.78438 276.47308Q82.47188 277.28558 82.47188 278.8012L82.47188 279.25433L78.175 279.25433Q78.20625 280.19183 78.72188 280.76996Q79.25313 281.34808 80.06563 281.34808Q80.62813 281.34808 81.01875 281.1137Q81.425 280.87933 81.7375 280.4887L82.39375 281.00433Q81.59688 282.2387 80.00313 282.2387ZM79.8625 276.5512Q79.20625 276.5512 78.75313 277.03558Q78.31563 277.50433 78.22188 278.3637L81.39375 278.3637L81.39375 278.28558Q81.34688 277.45746 80.94063 277.00433Q80.55 276.5512 79.8625 276.5512ZM89.675 278.66058L87.65938 278.66058L87.65938 282.1137L86.53438 282.1137L86.53438 273.58246L89.3625 273.58246Q90.8 273.58246 91.56563 274.2387Q92.34688 274.89496 92.34688 276.14496Q92.34688 276.94183 91.90938 277.53558Q91.4875 278.12933 90.72188 278.4262L92.72188 282.03558L92.72188 282.1137L91.51875 282.1137L89.675 278.66058ZM87.65938 277.7387L89.39375 277.7387Q90.2375 277.7387 90.72188 277.31683Q91.22188 276.87933 91.22188 276.14496Q91.22188 275.3637 90.75313 274.94183Q90.28438 274.51996 89.39375 274.50433L87.65938 274.50433L87.65938 277.7387ZM96.00313 282.2387Q94.70625 282.2387 93.89375 281.39496Q93.09688 280.53558 93.09688 279.1137L93.09688 278.9262Q93.09688 277.97308 93.45625 277.2387Q93.81563 276.4887 94.45625 276.08246Q95.1125 275.66058 95.8625 275.66058Q97.09688 275.66058 97.78438 276.47308Q98.47188 277.28558 98.47188 278.8012L98.47188 279.25433L94.175 279.25433Q94.20625 280.19183 94.72188 280.76996Q95.25313 281.34808 96.06563 281.34808Q96.62813 281.34808 97.01875 281.1137Q97.425 280.87933 97.7375 280.4887L98.39375 281.00433Q97.59688 282.2387 96.00313 282.2387ZM95.8625 276.5512Q95.20625 276.5512 94.75313 277.03558Q94.31563 277.50433 94.22188 278.3637L97.39375 278.3637L97.39375 278.28558Q97.34688 277.45746 96.94063 277.00433Q96.55 276.5512 95.8625 276.5512ZM104.9875 280.6137L106.20625 275.76996L107.28438 275.76996L105.44063 282.1137L104.56563 282.1137L103.01875 277.3012L101.51875 282.1137L100.64375 282.1137L98.8 275.76996L99.87813 275.76996L101.12813 280.51996L102.6125 275.76996L103.47188 275.76996L104.9875 280.6137ZM112.28438 282.1137Q112.19063 281.9262 112.12813 281.44183Q111.37813 282.2387 110.33125 282.2387Q109.39375 282.2387 108.78438 281.70746Q108.19063 281.1762 108.19063 280.34808Q108.19063 279.3637 108.94063 278.81683Q109.69063 278.26996 111.06563 278.26996L112.1125 278.26996L112.1125 277.76996Q112.1125 277.20746 111.76875 276.87933Q111.44063 276.53558 110.76875 276.53558Q110.19063 276.53558 109.8 276.83246Q109.40938 277.1137 109.40938 277.53558L108.31563 277.53558Q108.31563 277.0512 108.64375 276.6137Q108.9875 276.1762 109.56563 275.9262Q110.14375 275.66058 110.83125 275.66058Q111.94063 275.66058 112.55 276.20746Q113.175 276.75433 113.20625 277.70746L113.20625 280.62933Q113.20625 281.50433 113.425 282.01996L113.425 282.1137L112.28438 282.1137ZM110.4875 281.28558Q111.00313 281.28558 111.45625 281.01996Q111.90938 280.75433 112.1125 280.33246L112.1125 279.03558L111.26875 279.03558Q109.26875 279.03558 109.26875 280.20746Q109.26875 280.70746 109.6125 281.00433Q109.95625 281.28558 110.4875 281.28558ZM118.44063 276.7387Q118.19063 276.70746 117.90938 276.70746Q116.83125 276.70746 116.45625 277.6137L116.45625 282.1137L115.37813 282.1137L115.37813 275.76996L116.425 275.76996L116.44063 276.50433Q116.97188 275.66058 117.95625 275.66058Q118.26875 275.66058 118.44063 275.7387L118.44063 276.7387ZM119.1125 278.89496Q119.1125 277.4262 119.8 276.5512Q120.4875 275.66058 121.6125 275.66058Q122.72188 275.66058 123.37813 276.41058L123.37813 273.1137L124.45625 273.1137L124.45625 282.1137L123.45625 282.1137L123.40938 281.4262Q122.75313 282.2387 121.59688 282.2387Q120.50313 282.2387 119.8 281.33246Q119.1125 280.4262 119.1125 278.97308L119.1125 278.89496ZM120.19063 279.01996Q120.19063 280.09808 120.62813 280.70746Q121.08125 281.31683 121.8625 281.31683Q122.89375 281.31683 123.37813 280.37933L123.37813 277.47308Q122.89375 276.58246 121.87813 276.58246Q121.08125 276.58246 120.62813 277.19183Q120.19063 277.8012 120.19063 279.01996ZM130.06563 280.4262Q130.06563 279.9887 129.72188 279.75433Q129.39375 279.50433 128.56563 279.33246Q127.75313 279.16058 127.26875 278.91058Q126.78438 278.66058 126.55 278.33246Q126.33125 277.9887 126.33125 277.51996Q126.33125 276.7387 126.9875 276.20746Q127.64375 275.66058 128.675 275.66058Q129.75313 275.66058 130.40938 276.22308Q131.08125 276.76996 131.08125 277.62933L130.00313 277.62933Q130.00313 277.19183 129.6125 276.87933Q129.2375 276.5512 128.675 276.5512Q128.08125 276.5512 127.7375 276.81683Q127.40938 277.06683 127.40938 277.47308Q127.40938 277.8637 127.72188 278.06683Q128.03438 278.26996 128.84688 278.45746Q129.65938 278.62933 130.15938 278.87933Q130.65938 279.12933 130.89375 279.4887Q131.14375 279.84808 131.14375 280.34808Q131.14375 281.20746 130.45625 281.72308Q129.78438 282.2387 128.70625 282.2387Q127.94063 282.2387 127.34688 281.97308Q126.76875 281.69183 126.44063 281.20746Q126.1125 280.72308 126.1125 280.16058L127.19063 280.16058Q127.22188 280.70746 127.62813 281.03558Q128.03438 281.34808 128.70625 281.34808Q129.31563 281.34808 129.69063 281.09808Q130.06563 280.84808 130.06563 280.4262Z" fill-rule="nonzero"/><path fill="#ccddee" d="M22.815624 300.1137L21.7375 300.1137L21.7375 292.89496L19.55 293.69183L19.55 292.70746L22.659374 291.53558L22.815624 291.53558L22.815624 300.1137ZM31.440624 293.8012Q31.440624 294.44183 31.096874 294.94183Q30.753124 295.44183 30.190624 295.72308Q30.846874 296.00433 31.2375 296.56683Q31.628124 297.1137 31.628124 297.81683Q31.628124 298.91058 30.878124 299.58246Q30.14375 300.2387 28.925 300.2387Q27.690624 300.2387 26.940624 299.58246Q26.20625 298.91058 26.20625 297.81683Q26.20625 297.1137 26.58125 296.56683Q26.95625 296.00433 27.628124 295.72308Q27.065624 295.44183 26.7375 294.94183Q26.409374 294.44183 26.409374 293.8012Q26.409374 292.72308 27.096874 292.09808Q27.784374 291.45746 28.925 291.45746Q30.05 291.45746 30.7375 292.09808Q31.440624 292.72308 31.440624 293.8012ZM30.55 297.78558Q30.55 297.06683 30.096874 296.62933Q29.64375 296.1762 28.909374 296.1762Q28.175 296.1762 27.721874 296.62933Q27.284374 297.06683 27.284374 297.8012Q27.284374 298.51996 27.721874 298.94183Q28.159374 299.34808 28.925 299.34808Q29.675 299.34808 30.1125 298.9262Q30.55 298.50433 30.55 297.78558ZM28.925 292.34808Q28.284374 292.34808 27.878124 292.75433Q27.4875 293.14496 27.4875 293.83246Q27.4875 294.47308 27.878124 294.87933Q28.26875 295.28558 28.909374 295.28558Q29.565624 295.28558 29.95625 294.87933Q30.346874 294.47308 30.346874 293.83246Q30.346874 293.1762 29.940624 292.76996Q29.534374 292.34808 28.925 292.34808ZM33.39375 299.5512Q33.39375 299.26996 33.55 299.08246Q33.721874 298.89496 34.05 298.89496Q34.39375 298.89496 34.565624 299.08246Q34.7375 299.26996 34.7375 299.5512Q34.7375 299.81683 34.565624 300.00433Q34.39375 300.1762 34.05 300.1762Q33.721874 300.1762 33.55 300.00433Q33.39375 299.81683 33.39375 299.5512ZM41.6125 296.47308Q41.6125 298.37933 40.95625 299.31683Q40.315624 300.2387 38.925 300.2387Q37.565624 300.2387 36.909374 299.33246Q36.253124 298.4262 36.221874 296.6137L36.221874 295.1762Q36.221874 293.28558 36.8625 292.37933Q37.51875 291.45746 38.909374 291.45746Q40.284374 291.45746 40.940624 292.34808Q41.596874 293.22308 41.6125 295.06683L41.6125 296.47308ZM40.51875 294.9887Q40.51875 293.6137 40.128124 292.9887Q39.753124 292.34808 38.909374 292.34808Q38.08125 292.34808 37.690624 292.9887Q37.315624 293.6137 37.315624 294.91058L37.315624 296.64496Q37.315624 298.01996 37.70625 298.69183Q38.1125 299.34808 38.925 299.34808Q39.721874 299.34808 40.1125 298.72308Q40.503124 298.09808 40.51875 296.76996L40.51875 294.9887ZM43.159374 293.22308Q43.159374 292.45746 43.64375 291.95746Q44.14375 291.45746 44.909374 291.45746Q45.690624 291.45746 46.175 291.95746Q46.659374 292.45746 46.659374 293.25433L46.659374 293.6762Q46.659374 294.44183 46.159374 294.94183Q45.675 295.4262 44.925 295.4262Q44.159374 295.4262 43.659374 294.94183Q43.159374 294.44183 43.159374 293.62933L43.159374 293.22308ZM43.971874 293.6762Q43.971874 294.12933 44.221874 294.4262Q44.4875 294.72308 44.925 294.72308Q45.346874 294.72308 45.596874 294.44183Q45.846874 294.14496 45.846874 293.64496L45.846874 293.22308Q45.846874 292.76996 45.596874 292.47308Q45.346874 292.16058 44.909374 292.16058Q44.471874 292.16058 44.221874 292.47308Q43.971874 292.76996 43.971874 293.2387L43.971874 293.6762ZM47.315624 298.01996Q47.315624 297.25433 47.8 296.76996Q48.3 296.26996 49.065624 296.26996Q49.83125 296.26996 50.315624 296.76996Q50.815624 297.25433 50.815624 298.06683L50.815624 298.47308Q50.815624 299.2387 50.33125 299.7387Q49.846874 300.2387 49.08125 300.2387Q48.315624 300.2387 47.815624 299.75433Q47.315624 299.25433 47.315624 298.44183L47.315624 298.01996ZM48.128124 298.47308Q48.128124 298.94183 48.378124 299.2387Q48.64375 299.53558 49.08125 299.53558Q49.503124 299.53558 49.753124 299.25433Q50.003124 298.95746 50.003124 298.45746L50.003124 298.01996Q50.003124 297.5512 49.7375 297.26996Q49.4875 296.97308 49.065624 296.97308Q48.64375 296.97308 48.378124 297.26996Q48.128124 297.5512 48.128124 298.0512L48.128124 298.47308ZM45.175 299.47308L44.55 299.08246L48.721874 292.41058L49.33125 292.8012L45.175 299.47308Z" fill-rule="nonzero"/><path stroke="#ccddee" stroke-width="1.0" stroke-linecap="butt" d="M18.55 286.6137L145.23334 286.6137L256.32715 286.6137" fill-rule="nonzero"/><path fill="#ccddee" d="M258.32715 286.6137C258.32715 285.50912 257.4317 284.6137 256.32715 284.6137C255.22258 284.6137 254.32715 285.50912 254.32715 286.6137C254.32715 287.71826 255.22258 288.6137 256.32715 288.6137C257.4317 288.6137 258.32715 287.71826 258.32715 286.6137" fill-rule="nonzero"/><path fill="#ffffff" d="M491.7469 65.791664Q491.3094 66.416664 490.52814 66.729164Q489.7469 67.041664 488.71564 67.041664Q487.6844 67.041664 486.8719 66.55729Q486.0594 66.05729 485.6219 65.15104Q485.1844 64.24479 485.16876 63.05729L485.16876 62.322914Q485.16876 60.385414 486.0594 59.322914Q486.96564 58.260414 488.59064 58.260414Q489.9344 58.260414 490.7469 58.947914Q491.5594 59.635414 491.7469 60.885414L490.6219 60.885414Q490.29376 59.197914 488.60626 59.197914Q487.46564 59.197914 486.8875 59.99479Q486.3094 60.77604 486.29376 62.291664L486.29376 62.979164Q486.29376 64.416664 486.95 65.27604Q487.60626 66.11979 488.73126 66.11979Q489.35626 66.11979 489.825 65.979164Q490.3094 65.83854 490.6219 65.49479L490.6219 63.58854L488.65314 63.58854L488.65314 62.666664L491.7469 62.666664L491.7469 65.791664ZM498.2625 62.979164L494.5594 62.979164L494.5594 65.99479L498.85626 65.99479L498.85626 66.916664L493.4344 66.916664L493.4344 58.385414L498.8094 58.385414L498.8094 59.30729L494.5594 59.30729L494.5594 62.05729L498.2625 62.05729L498.2625 62.979164ZM506.9969 66.916664L505.8719 66.916664L501.575 60.33854L501.575 66.916664L500.4344 66.916664L500.4344 58.385414L501.575 58.385414L505.8719 64.99479L505.8719 58.385414L506.9969 58.385414L506.9969 66.916664ZM514.2625 62.979164L510.5594 62.979164L510.5594 65.99479L514.85626 65.99479L514.85626 66.916664L509.4344 66.916664L509.4344 58.385414L514.8094 58.385414L514.8094 59.30729L510.5594 59.30729L510.5594 62.05729L514.2625 62.05729L514.2625 62.979164ZM518.95 63.11979Q517.5125 62.697914 516.84064 62.08854Q516.1844 61.479164 516.1844 60.58854Q516.1844 59.58854 516.98126 58.93229Q517.79376 58.260414 519.09064 58.260414Q519.96564 58.260414 520.65314 58.604164Q521.34064 58.947914 521.71564 59.541664Q522.10626 60.135414 522.10626 60.854164L520.96564 60.854164Q520.96564 60.072914 520.46564 59.635414Q519.98126 59.197914 519.09064 59.197914Q518.2625 59.197914 517.79376 59.572914Q517.325 59.93229 517.325 60.572914Q517.325 61.104164 517.7625 61.46354Q518.21564 61.822914 519.27814 62.11979Q520.34064 62.416664 520.9344 62.77604Q521.54376 63.135414 521.825 63.61979Q522.1219 64.104164 522.1219 64.74479Q522.1219 65.791664 521.3094 66.416664Q520.4969 67.041664 519.15314 67.041664Q518.2625 67.041664 517.4969 66.697914Q516.7469 66.354164 516.325 65.77604Q515.91876 65.18229 515.91876 64.447914L517.04376 64.447914Q517.04376 65.21354 517.6219 65.666664Q518.2 66.11979 519.15314 66.11979Q520.04376 66.11979 520.5125 65.760414Q520.98126 65.385414 520.98126 64.760414Q520.98126 64.135414 520.54376 63.791664Q520.10626 63.447914 518.95 63.11979ZM524.65314 66.916664L523.52814 66.916664L523.52814 58.385414L524.65314 58.385414L524.65314 66.916664ZM528.95 63.11979Q527.5125 62.697914 526.84064 62.08854Q526.1844 61.479164 526.1844 60.58854Q526.1844 59.58854 526.98126 58.93229Q527.79376 58.260414 529.09064 58.260414Q529.96564 58.260414 530.65314 58.604164Q531.34064 58.947914 531.71564 59.541664Q532.10626 60.135414 532.10626 60.854164L530.96564 60.854164Q530.96564 60.072914 530.46564 59.635414Q529.98126 59.197914 529.09064 59.197914Q528.2625 59.197914 527.79376 59.572914Q527.325 59.93229 527.325 60.572914Q527.325 61.104164 527.7625 61.46354Q528.21564 61.822914 529.27814 62.11979Q530.34064 62.416664 530.9344 62.77604Q531.54376 63.135414 531.825 63.61979Q532.1219 64.104164 532.1219 64.74479Q532.1219 65.791664 531.3094 66.416664Q530.4969 67.041664 529.15314 67.041664Q528.2625 67.041664 527.4969 66.697914Q526.7469 66.354164 526.325 65.77604Q525.91876 65.18229 525.91876 64.447914L527.04376 64.447914Q527.04376 65.21354 527.6219 65.666664Q528.2 66.11979 529.15314 66.11979Q530.04376 66.11979 530.5125 65.760414Q530.98126 65.385414 530.98126 64.760414Q530.98126 64.135414 530.54376 63.791664Q530.10626 63.447914 528.95 63.11979ZM541.15314 63.15104L537.5594 63.15104L537.5594 66.916664L536.4344 66.916664L536.4344 58.385414L541.73126 58.385414L541.73126 59.30729L537.5594 59.30729L537.5594 62.229164L541.15314 62.229164L541.15314 63.15104ZM547.1844 66.916664Q547.09064 66.729164 547.02814 66.24479Q546.27814 67.041664 545.23126 67.041664Q544.29376 67.041664 543.6844 66.510414Q543.09064 65.979164 543.09064 65.15104Q543.09064 64.166664 543.84064 63.61979Q544.59064 63.072914 545.96564 63.072914L547.0125 63.072914L547.0125 62.572914Q547.0125 62.010414 546.66876 61.68229Q546.34064 61.33854 545.66876 61.33854Q545.09064 61.33854 544.7 61.635414Q544.3094 61.916664 544.3094 62.33854L543.21564 62.33854Q543.21564 61.854164 543.54376 61.416664Q543.8875 60.979164 544.46564 60.729164Q545.04376 60.46354 545.73126 60.46354Q546.84064 60.46354 547.45 61.010414Q548.075 61.55729 548.10626 62.510414L548.10626 65.43229Q548.10626 66.30729 548.325 66.822914L548.325 66.916664L547.1844 66.916664ZM545.3875 66.08854Q545.90314 66.08854 546.35626 65.822914Q546.8094 65.55729 547.0125 65.135414L547.0125 63.83854L546.16876 63.83854Q544.16876 63.83854 544.16876 65.010414Q544.16876 65.510414 544.5125 65.80729Q544.85626 66.08854 545.3875 66.08854ZM553.34064 61.541664Q553.09064 61.510414 552.8094 61.510414Q551.73126 61.510414 551.35626 62.416664L551.35626 66.916664L550.27814 66.916664L550.27814 60.572914L551.325 60.572914L551.34064 61.30729Q551.8719 60.46354 552.85626 60.46354Q553.16876 60.46354 553.34064 60.541664L553.34064 61.541664ZM555.29376 60.572914L555.325 61.27604Q556.0125 60.46354 557.2 60.46354Q558.52814 60.46354 559.0125 61.479164Q559.325 61.02604 559.825 60.74479Q560.34064 60.46354 561.02814 60.46354Q563.1219 60.46354 563.15314 62.666664L563.15314 66.916664L562.075 66.916664L562.075 62.729164Q562.075 62.05729 561.7625 61.729164Q561.45 61.385414 560.71564 61.385414Q560.10626 61.385414 559.7 61.74479Q559.3094 62.104164 559.2469 62.71354L559.2469 66.916664L558.16876 66.916664L558.16876 62.760414Q558.16876 61.385414 556.8094 61.385414Q555.7469 61.385414 555.35626 62.291664L555.35626 66.916664L554.2625 66.916664L554.2625 60.572914L555.29376 60.572914ZM566.45 66.916664L565.3719 66.916664L565.3719 60.572914L566.45 60.572914L566.45 66.916664ZM565.27814 58.90104Q565.27814 58.635414 565.4344 58.447914Q565.60626 58.260414 565.91876 58.260414Q566.23126 58.260414 566.3875 58.447914Q566.5594 58.635414 566.5594 58.90104Q566.5594 59.15104 566.3875 59.33854Q566.23126 59.510414 565.91876 59.510414Q565.60626 59.510414 565.4344 59.33854Q565.27814 59.15104 565.27814 58.90104ZM569.29376 60.572914L569.325 61.36979Q570.0594 60.46354 571.23126 60.46354Q573.2469 60.46354 573.2625 62.729164L573.2625 66.916664L572.16876 66.916664L572.16876 62.71354Q572.16876 62.041664 571.85626 61.71354Q571.5594 61.385414 570.90314 61.385414Q570.3719 61.385414 569.96564 61.666664Q569.575 61.947914 569.35626 62.40104L569.35626 66.916664L568.27814 66.916664L568.27814 60.572914L569.29376 60.572914ZM575.0125 63.697914Q575.0125 62.21354 575.7 61.33854Q576.3875 60.46354 577.5125 60.46354Q578.66876 60.46354 579.325 61.27604L579.3719 60.572914L580.3719 60.572914L580.3719 66.760414Q580.3719 67.99479 579.6375 68.697914Q578.90314 69.416664 577.6844 69.416664Q576.9969 69.416664 576.34064 69.11979Q575.6844 68.822914 575.34064 68.322914L575.90314 67.666664Q576.59064 68.52604 577.60626 68.52604Q578.3875 68.52604 578.825 68.072914Q579.27814 67.635414 579.27814 66.822914L579.27814 66.27604Q578.6219 67.041664 577.4969 67.041664Q576.3875 67.041664 575.7 66.15104Q575.0125 65.24479 575.0125 63.697914ZM576.10626 63.822914Q576.10626 64.885414 576.54376 65.510414Q576.98126 66.11979 577.77814 66.11979Q578.79376 66.11979 579.27814 65.18229L579.27814 62.291664Q578.77814 61.385414 577.77814 61.385414Q576.9969 61.385414 576.54376 61.99479Q576.10626 62.604164 576.10626 63.822914Z" fill-rule="nonzero"/><path fill="#ccddee" d="M556.65314 80.635414L557.09064 76.385414L561.46564 76.385414L561.46564 77.385414L558.0125 77.385414L557.7469 79.71354Q558.3875 79.33854 559.1844 79.33854Q560.34064 79.33854 561.02814 80.11979Q561.71564 80.885414 561.71564 82.197914Q561.71564 83.510414 560.9969 84.27604Q560.29376 85.041664 559.0125 85.041664Q557.8875 85.041664 557.16876 84.416664Q556.45 83.77604 556.35626 82.666664L557.3719 82.666664Q557.48126 83.40104 557.90314 83.77604Q558.325 84.15104 559.0125 84.15104Q559.7625 84.15104 560.2 83.635414Q560.6375 83.11979 560.6375 82.21354Q560.6375 81.354164 560.16876 80.83854Q559.7 80.322914 558.91876 80.322914Q558.21564 80.322914 557.8094 80.61979L557.52814 80.854164L556.65314 80.635414ZM563.29376 84.354164Q563.29376 84.072914 563.45 83.885414Q563.6219 83.697914 563.95 83.697914Q564.29376 83.697914 564.46564 83.885414Q564.6375 84.072914 564.6375 84.354164Q564.6375 84.61979 564.46564 84.80729Q564.29376 84.979164 563.95 84.979164Q563.6219 84.979164 563.45 84.80729Q563.29376 84.61979 563.29376 84.354164ZM571.5125 81.27604Q571.5125 83.18229 570.85626 84.11979Q570.21564 85.041664 568.825 85.041664Q567.46564 85.041664 566.8094 84.135414Q566.15314 83.229164 566.1219 81.416664L566.1219 79.979164Q566.1219 78.08854 566.7625 77.18229Q567.41876 76.260414 568.8094 76.260414Q570.1844 76.260414 570.84064 77.15104Q571.4969 78.02604 571.5125 79.86979L571.5125 81.27604ZM570.41876 79.791664Q570.41876 78.416664 570.02814 77.791664Q569.65314 77.15104 568.8094 77.15104Q567.98126 77.15104 567.59064 77.791664Q567.21564 78.416664 567.21564 79.71354L567.21564 81.447914Q567.21564 82.822914 567.60626 83.49479Q568.0125 84.15104 568.825 84.15104Q569.6219 84.15104 570.0125 83.52604Q570.40314 82.90104 570.41876 81.572914L570.41876 79.791664ZM573.0594 78.02604Q573.0594 77.260414 573.54376 76.760414Q574.04376 76.260414 574.8094 76.260414Q575.59064 76.260414 576.075 76.760414Q576.5594 77.260414 576.5594 78.05729L576.5594 78.479164Q576.5594 79.24479 576.0594 79.74479Q575.575 80.229164 574.825 80.229164Q574.0594 80.229164 573.5594 79.74479Q573.0594 79.24479 573.0594 78.43229L573.0594 78.02604ZM573.8719 78.479164Q573.8719 78.93229 574.1219 79.229164Q574.3875 79.52604 574.825 79.52604Q575.2469 79.52604 575.4969 79.24479Q575.7469 78.947914 575.7469 78.447914L575.7469 78.02604Q575.7469 77.572914 575.4969 77.27604Q575.2469 76.96354 574.8094 76.96354Q574.3719 76.96354 574.1219 77.27604Q573.8719 77.572914 573.8719 78.041664L573.8719 78.479164ZM577.21564 82.822914Q577.21564 82.05729 577.7 81.572914Q578.2 81.072914 578.96564 81.072914Q579.73126 81.072914 580.21564 81.572914Q580.71564 82.05729 580.71564 82.86979L580.71564 83.27604Q580.71564 84.041664 580.23126 84.541664Q579.7469 85.041664 578.98126 85.041664Q578.21564 85.041664 577.71564 84.55729Q577.21564 84.05729 577.21564 83.24479L577.21564 82.822914ZM578.02814 83.27604Q578.02814 83.74479 578.27814 84.041664Q578.54376 84.33854 578.98126 84.33854Q579.40314 84.33854 579.65314 84.05729Q579.90314 83.760414 579.90314 83.260414L579.90314 82.822914Q579.90314 82.354164 579.6375 82.072914Q579.3875 81.77604 578.96564 81.77604Q578.54376 81.77604 578.27814 82.072914Q578.02814 82.354164 578.02814 82.854164L578.02814 83.27604ZM575.075 84.27604L574.45 83.885414L578.6219 77.21354L579.23126 77.604164L575.075 84.27604Z" fill-rule="nonzero"/><path stroke="#ccddee" stroke-width="1.0" stroke-linecap="butt" d="M581.45 71.416664L454.76666 71.416664L322.1086 94.81399" fill-rule="nonzero"/><path fill="#ccddee" d="M324.1086 94.81399C324.1086 93.70942 323.2132 92.81399 322.1086 92.81399C321.00406 92.81399 320.1086 93.70942 320.1086 94.81399C320.1086 95.91856 321.00406 96.81399 322.1086 96.81399C323.2132 96.81399 324.1086 95.91856 324.1086 94.81399" fill-rule="nonzero"/><path fill="#ffffff" d="M504.65314 99.916664L503.52814 99.916664L503.52814 91.385414L504.65314 91.385414L504.65314 99.916664ZM507.29376 93.572914L507.325 94.36979Q508.0594 93.46354 509.23126 93.46354Q511.2469 93.46354 511.2625 95.729164L511.2625 99.916664L510.16876 99.916664L510.16876 95.71354Q510.16876 95.041664 509.85626 94.71354Q509.5594 94.385414 508.90314 94.385414Q508.3719 94.385414 507.96564 94.666664Q507.575 94.947914 507.35626 95.40104L507.35626 99.916664L506.27814 99.916664L506.27814 93.572914L507.29376 93.572914ZM514.45 99.916664L513.3719 99.916664L513.3719 93.572914L514.45 93.572914L514.45 99.916664ZM513.27814 91.90104Q513.27814 91.635414 513.4344 91.447914Q513.60626 91.260414 513.91876 91.260414Q514.23126 91.260414 514.3875 91.447914Q514.5594 91.635414 514.5594 91.90104Q514.5594 92.15104 514.3875 92.33854Q514.23126 92.510414 513.91876 92.510414Q513.60626 92.510414 513.4344 92.33854Q513.27814 92.15104 513.27814 91.90104ZM517.7469 92.041664L517.7469 93.572914L518.91876 93.572914L518.91876 94.416664L517.7469 94.416664L517.7469 98.33854Q517.7469 98.729164 517.90314 98.916664Q518.0594 99.104164 518.4344 99.104164Q518.6219 99.104164 518.95 99.041664L518.95 99.916664Q518.52814 100.041664 518.1219 100.041664Q517.40314 100.041664 517.02814 99.604164Q516.65314 99.15104 516.65314 98.33854L516.65314 94.416664L515.4969 94.416664L515.4969 93.572914L516.65314 93.572914L516.65314 92.041664L517.7469 92.041664ZM521.45 99.916664L520.3719 99.916664L520.3719 93.572914L521.45 93.572914L521.45 99.916664ZM520.27814 91.90104Q520.27814 91.635414 520.4344 91.447914Q520.60626 91.260414 520.91876 91.260414Q521.23126 91.260414 521.3875 91.447914Q521.5594 91.635414 521.5594 91.90104Q521.5594 92.15104 521.3875 92.33854Q521.23126 92.510414 520.91876 92.510414Q520.60626 92.510414 520.4344 92.33854Q520.27814 92.15104 520.27814 91.90104ZM527.1844 99.916664Q527.09064 99.729164 527.02814 99.24479Q526.27814 100.041664 525.23126 100.041664Q524.29376 100.041664 523.6844 99.510414Q523.09064 98.979164 523.09064 98.15104Q523.09064 97.166664 523.84064 96.61979Q524.59064 96.072914 525.96564 96.072914L527.0125 96.072914L527.0125 95.572914Q527.0125 95.010414 526.66876 94.68229Q526.34064 94.33854 525.66876 94.33854Q525.09064 94.33854 524.7 94.635414Q524.3094 94.916664 524.3094 95.33854L523.21564 95.33854Q523.21564 94.854164 523.54376 94.416664Q523.8875 93.979164 524.46564 93.729164Q525.04376 93.46354 525.73126 93.46354Q526.84064 93.46354 527.45 94.010414Q528.075 94.55729 528.10626 95.510414L528.10626 98.43229Q528.10626 99.30729 528.325 99.822914L528.325 99.916664L527.1844 99.916664ZM525.3875 99.08854Q525.90314 99.08854 526.35626 98.822914Q526.8094 98.55729 527.0125 98.135414L527.0125 96.83854L526.16876 96.83854Q524.16876 96.83854 524.16876 98.010414Q524.16876 98.510414 524.5125 98.80729Q524.85626 99.08854 525.3875 99.08854ZM531.45 99.916664L530.3719 99.916664L530.3719 90.916664L531.45 90.916664L531.45 99.916664ZM537.575 98.99479L541.6219 98.99479L541.6219 99.916664L536.4344 99.916664L536.4344 91.385414L537.575 91.385414L537.575 98.99479ZM543.45 99.916664L542.3719 99.916664L542.3719 93.572914L543.45 93.572914L543.45 99.916664ZM542.27814 91.90104Q542.27814 91.635414 542.4344 91.447914Q542.60626 91.260414 542.91876 91.260414Q543.23126 91.260414 543.3875 91.447914Q543.5594 91.635414 543.5594 91.90104Q543.5594 92.15104 543.3875 92.33854Q543.23126 92.510414 542.91876 92.510414Q542.60626 92.510414 542.4344 92.33854Q542.27814 92.15104 542.27814 91.90104ZM545.0125 96.697914Q545.0125 95.197914 545.6844 94.33854Q546.3719 93.46354 547.52814 93.46354Q548.65314 93.46354 549.3094 94.21354L549.35626 93.572914L550.35626 93.572914L550.35626 102.354164L549.2625 102.354164L549.2625 99.322914Q548.60626 100.041664 547.52814 100.041664Q546.3719 100.041664 545.6844 99.15104Q545.0125 98.24479 545.0125 96.77604L545.0125 96.697914ZM546.09064 96.822914Q546.09064 97.90104 546.54376 98.52604Q547.0125 99.15104 547.79376 99.15104Q548.7625 99.15104 549.2625 98.291664L549.2625 95.18229Q548.7469 94.354164 547.8094 94.354164Q547.0125 94.354164 546.54376 94.979164Q546.09064 95.604164 546.09064 96.822914ZM556.1844 99.291664Q555.5594 100.041664 554.325 100.041664Q553.3094 100.041664 552.77814 99.447914Q552.2469 98.854164 552.2469 97.697914L552.2469 93.572914L553.325 93.572914L553.325 97.666664Q553.325 99.11979 554.4969 99.11979Q555.7469 99.11979 556.15314 98.18229L556.15314 93.572914L557.2469 93.572914L557.2469 99.916664L556.21564 99.916664L556.1844 99.291664ZM560.45 99.916664L559.3719 99.916664L559.3719 93.572914L560.45 93.572914L560.45 99.916664ZM559.27814 91.90104Q559.27814 91.635414 559.4344 91.447914Q559.60626 91.260414 559.91876 91.260414Q560.23126 91.260414 560.3875 91.447914Q560.5594 91.635414 560.5594 91.90104Q560.5594 92.15104 560.3875 92.33854Q560.23126 92.510414 559.91876 92.510414Q559.60626 92.510414 559.4344 92.33854Q559.27814 92.15104 559.27814 91.90104ZM562.0125 96.697914Q562.0125 95.229164 562.7 94.354164Q563.3875 93.46354 564.5125 93.46354Q565.6219 93.46354 566.27814 94.21354L566.27814 90.916664L567.35626 90.916664L567.35626 99.916664L566.35626 99.916664L566.3094 99.229164Q565.65314 100.041664 564.4969 100.041664Q563.40314 100.041664 562.7 99.135414Q562.0125 98.229164 562.0125 96.77604L562.0125 96.697914ZM563.09064 96.822914Q563.09064 97.90104 563.52814 98.510414Q563.98126 99.11979 564.7625 99.11979Q565.79376 99.11979 566.27814 98.18229L566.27814 95.27604Q565.79376 94.385414 564.77814 94.385414Q563.98126 94.385414 563.52814 94.99479Q563.09064 95.604164 563.09064 96.822914ZM570.45 99.916664L569.3719 99.916664L569.3719 93.572914L570.45 93.572914L570.45 99.916664ZM569.27814 91.90104Q569.27814 91.635414 569.4344 91.447914Q569.60626 91.260414 569.91876 91.260414Q570.23126 91.260414 570.3875 91.447914Q570.5594 91.635414 570.5594 91.90104Q570.5594 92.15104 570.3875 92.33854Q570.23126 92.510414 569.91876 92.510414Q569.60626 92.510414 569.4344 92.33854Q569.27814 92.15104 569.27814 91.90104ZM573.7469 92.041664L573.7469 93.572914L574.91876 93.572914L574.91876 94.416664L573.7469 94.416664L573.7469 98.33854Q573.7469 98.729164 573.90314 98.916664Q574.0594 99.104164 574.4344 99.104164Q574.6219 99.104164 574.95 99.041664L574.95 99.916664Q574.52814 100.041664 574.1219 100.041664Q573.40314 100.041664 573.02814 99.604164Q572.65314 99.15104 572.65314 98.33854L572.65314 94.416664L571.4969 94.416664L571.4969 93.572914L572.65314 93.572914L572.65314 92.041664L573.7469 92.041664ZM578.34064 98.322914L579.825 93.572914L580.98126 93.572914L578.4344 100.90104Q577.84064 102.479164 576.5594 102.479164L576.34064 102.46354L575.95 102.385414L575.95 101.510414L576.23126 101.52604Q576.79376 101.52604 577.09064 101.30729Q577.40314 101.08854 577.60626 100.49479L577.84064 99.83854L575.575 93.572914L576.7625 93.572914L578.34064 98.322914Z" fill-rule="nonzero"/><path fill="#ccddee" d="M559.71564 117.916664L558.6375 117.916664L558.6375 110.697914L556.45 111.49479L556.45 110.510414L559.5594 109.33854L559.71564 109.33854L559.71564 117.916664ZM563.29376 117.354164Q563.29376 117.072914 563.45 116.885414Q563.6219 116.697914 563.95 116.697914Q564.29376 116.697914 564.46564 116.885414Q564.6375 117.072914 564.6375 117.354164Q564.6375 117.61979 564.46564 117.80729Q564.29376 117.979164 563.95 117.979164Q563.6219 117.979164 563.45 117.80729Q563.29376 117.61979 563.29376 117.354164ZM571.5125 114.27604Q571.5125 116.18229 570.85626 117.11979Q570.21564 118.041664 568.825 118.041664Q567.46564 118.041664 566.8094 117.135414Q566.15314 116.229164 566.1219 114.416664L566.1219 112.979164Q566.1219 111.08854 566.7625 110.18229Q567.41876 109.260414 568.8094 109.260414Q570.1844 109.260414 570.84064 110.15104Q571.4969 111.02604 571.5125 112.86979L571.5125 114.27604ZM570.41876 112.791664Q570.41876 111.416664 570.02814 110.791664Q569.65314 110.15104 568.8094 110.15104Q567.98126 110.15104 567.59064 110.791664Q567.21564 111.416664 567.21564 112.71354L567.21564 114.447914Q567.21564 115.822914 567.60626 116.49479Q568.0125 117.15104 568.825 117.15104Q569.6219 117.15104 570.0125 116.52604Q570.40314 115.90104 570.41876 114.572914L570.41876 112.791664ZM573.0594 111.02604Q573.0594 110.260414 573.54376 109.760414Q574.04376 109.260414 574.8094 109.260414Q575.59064 109.260414 576.075 109.760414Q576.5594 110.260414 576.5594 111.05729L576.5594 111.479164Q576.5594 112.24479 576.0594 112.74479Q575.575 113.229164 574.825 113.229164Q574.0594 113.229164 573.5594 112.74479Q573.0594 112.24479 573.0594 111.43229L573.0594 111.02604ZM573.8719 111.479164Q573.8719 111.93229 574.1219 112.229164Q574.3875 112.52604 574.825 112.52604Q575.2469 112.52604 575.4969 112.24479Q575.7469 111.947914 575.7469 111.447914L575.7469 111.02604Q575.7469 110.572914 575.4969 110.27604Q575.2469 109.96354 574.8094 109.96354Q574.3719 109.96354 574.1219 110.27604Q573.8719 110.572914 573.8719 111.041664L573.8719 111.479164ZM577.21564 115.822914Q577.21564 115.05729 577.7 114.572914Q578.2 114.072914 578.96564 114.072914Q579.73126 114.072914 580.21564 114.572914Q580.71564 115.05729 580.71564 115.86979L580.71564 116.27604Q580.71564 117.041664 580.23126 117.541664Q579.7469 118.041664 578.98126 118.041664Q578.21564 118.041664 577.71564 117.55729Q577.21564 117.05729 577.21564 116.24479L577.21564 115.822914ZM578.02814 116.27604Q578.02814 116.74479 578.27814 117.041664Q578.54376 117.33854 578.98126 117.33854Q579.40314 117.33854 579.65314 117.05729Q579.90314 116.760414 579.90314 116.260414L579.90314 115.822914Q579.90314 115.354164 579.6375 115.072914Q579.3875 114.77604 578.96564 114.77604Q578.54376 114.77604 578.27814 115.072914Q578.02814 115.354164 578.02814 115.854164L578.02814 116.27604ZM575.075 117.27604L574.45 116.885414L578.6219 110.21354L579.23126 110.604164L575.075 117.27604Z" fill-rule="nonzero"/><path stroke="#ccddee" stroke-width="1.0" stroke-linecap="butt" d="M581.45 104.416664L454.76666 104.416664L347.87326 99.44466" fill-rule="nonzero"/><path fill="#ccddee" d="M349.87326 99.44466C349.87326 98.34009 348.97784 97.44466 347.87326 97.44466C346.7687 97.44466 345.87326 98.34009 345.87326 99.44466C345.87326 100.549225 346.7687 101.44466 347.87326 101.44466C348.97784 101.44466 349.87326 100.549225 349.87326 99.44466" fill-rule="nonzero"/><path fill="#ffffff" d="M510.9969 128.9323Q510.9969 130.1823 510.575 131.1198Q510.15314 132.04167 509.3719 132.54167Q508.60626 133.04167 507.575 133.04167Q506.575 133.04167 505.79376 132.54167Q505.0125 132.04167 504.575 131.13542Q504.15314 130.21355 504.1375 128.9948L504.1375 128.38542Q504.1375 127.15105 504.5594 126.21355Q504.9969 125.27605 505.77814 124.77605Q506.5594 124.26042 507.575 124.26042Q508.59064 124.26042 509.3719 124.76042Q510.15314 125.26042 510.575 126.19792Q510.9969 127.13542 510.9969 128.38542L510.9969 128.9323ZM509.8875 128.3698Q509.8875 126.85417 509.27814 126.04167Q508.66876 125.22917 507.575 125.22917Q506.4969 125.22917 505.8875 126.04167Q505.27814 126.85417 505.2625 128.29167L505.2625 128.9323Q505.2625 130.40105 505.8719 131.2448Q506.4969 132.07292 507.575 132.07292Q508.66876 132.07292 509.2625 131.29167Q509.8719 130.4948 509.8875 129.01042L509.8875 128.3698ZM513.7469 125.04167L513.7469 126.57292L514.91876 126.57292L514.91876 127.41667L513.7469 127.41667L513.7469 131.33855Q513.7469 131.72917 513.90314 131.91667Q514.0594 132.10417 514.4344 132.10417Q514.6219 132.10417 514.95 132.04167L514.95 132.91667Q514.52814 133.04167 514.1219 133.04167Q513.40314 133.04167 513.02814 132.60417Q512.65314 132.15105 512.65314 131.33855L512.65314 127.41667L511.4969 127.41667L511.4969 126.57292L512.65314 126.57292L512.65314 125.04167L513.7469 125.04167ZM517.35626 127.33855Q518.075 126.46355 519.23126 126.46355Q521.2469 126.46355 521.2625 128.72917L521.2625 132.91667L520.16876 132.91667L520.16876 128.71355Q520.16876 128.04167 519.85626 127.71355Q519.5594 127.38542 518.90314 127.38542Q518.3719 127.38542 517.96564 127.66667Q517.575 127.94792 517.35626 128.40105L517.35626 132.91667L516.27814 132.91667L516.27814 123.91667L517.35626 123.91667L517.35626 127.33855ZM525.90314 133.04167Q524.60626 133.04167 523.79376 132.19792Q522.9969 131.33855 522.9969 129.91667L522.9969 129.72917Q522.9969 128.77605 523.35626 128.04167Q523.71564 127.29167 524.35626 126.88542Q525.0125 126.46355 525.7625 126.46355Q526.9969 126.46355 527.6844 127.27605Q528.3719 128.08855 528.3719 129.60417L528.3719 130.0573L524.075 130.0573Q524.10626 130.9948 524.6219 131.57292Q525.15314 132.15105 525.96564 132.15105Q526.52814 132.15105 526.91876 131.91667Q527.325 131.6823 527.6375 131.29167L528.29376 131.8073Q527.4969 133.04167 525.90314 133.04167ZM525.7625 127.35417Q525.10626 127.35417 524.65314 127.83855Q524.21564 128.3073 524.1219 129.16667L527.29376 129.16667L527.29376 129.08855Q527.2469 128.26042 526.84064 127.8073Q526.45 127.35417 525.7625 127.35417ZM532.34064 127.54167Q532.09064 127.51042 531.8094 127.51042Q530.73126 127.51042 530.35626 128.41667L530.35626 132.91667L529.27814 132.91667L529.27814 126.57292L530.325 126.57292L530.34064 127.3073Q530.8719 126.46355 531.85626 126.46355Q532.16876 126.46355 532.34064 126.54167L532.34064 127.54167ZM537.575 131.9948L541.6219 131.9948L541.6219 132.91667L536.4344 132.91667L536.4344 124.38542L537.575 124.38542L537.575 131.9948ZM543.45 132.91667L542.3719 132.91667L542.3719 126.57292L543.45 126.57292L543.45 132.91667ZM542.27814 124.90105Q542.27814 124.63542 542.4344 124.44792Q542.60626 124.26042 542.91876 124.26042Q543.23126 124.26042 543.3875 124.44792Q543.5594 124.63542 543.5594 124.90105Q543.5594 125.15105 543.3875 125.33855Q543.23126 125.51042 542.91876 125.51042Q542.60626 125.51042 542.4344 125.33855Q542.27814 125.15105 542.27814 124.90105ZM545.0125 129.69792Q545.0125 128.19792 545.6844 127.33855Q546.3719 126.46355 547.52814 126.46355Q548.65314 126.46355 549.3094 127.21355L549.35626 126.57292L550.35626 126.57292L550.35626 135.35417L549.2625 135.35417L549.2625 132.32292Q548.60626 133.04167 547.52814 133.04167Q546.3719 133.04167 545.6844 132.15105Q545.0125 131.2448 545.0125 129.77605L545.0125 129.69792ZM546.09064 129.82292Q546.09064 130.90105 546.54376 131.52605Q547.0125 132.15105 547.79376 132.15105Q548.7625 132.15105 549.2625 131.29167L549.2625 128.1823Q548.7469 127.35417 547.8094 127.35417Q547.0125 127.35417 546.54376 127.97917Q546.09064 128.60417 546.09064 129.82292ZM556.1844 132.29167Q555.5594 133.04167 554.325 133.04167Q553.3094 133.04167 552.77814 132.44792Q552.2469 131.85417 552.2469 130.69792L552.2469 126.57292L553.325 126.57292L553.325 130.66667Q553.325 132.1198 554.4969 132.1198Q555.7469 132.1198 556.15314 131.1823L556.15314 126.57292L557.2469 126.57292L557.2469 132.91667L556.21564 132.91667L556.1844 132.29167ZM560.45 132.91667L559.3719 132.91667L559.3719 126.57292L560.45 126.57292L560.45 132.91667ZM559.27814 124.90105Q559.27814 124.63542 559.4344 124.44792Q559.60626 124.26042 559.91876 124.26042Q560.23126 124.26042 560.3875 124.44792Q560.5594 124.63542 560.5594 124.90105Q560.5594 125.15105 560.3875 125.33855Q560.23126 125.51042 559.91876 125.51042Q559.60626 125.51042 559.4344 125.33855Q559.27814 125.15105 559.27814 124.90105ZM562.0125 129.69792Q562.0125 128.22917 562.7 127.35417Q563.3875 126.46355 564.5125 126.46355Q565.6219 126.46355 566.27814 127.21355L566.27814 123.91667L567.35626 123.91667L567.35626 132.91667L566.35626 132.91667L566.3094 132.22917Q565.65314 133.04167 564.4969 133.04167Q563.40314 133.04167 562.7 132.13542Q562.0125 131.22917 562.0125 129.77605L562.0125 129.69792ZM563.09064 129.82292Q563.09064 130.90105 563.52814 131.51042Q563.98126 132.1198 564.7625 132.1198Q565.79376 132.1198 566.27814 131.1823L566.27814 128.27605Q565.79376 127.38542 564.77814 127.38542Q563.98126 127.38542 563.52814 127.9948Q563.09064 128.60417 563.09064 129.82292ZM570.45 132.91667L569.3719 132.91667L569.3719 126.57292L570.45 126.57292L570.45 132.91667ZM569.27814 124.90105Q569.27814 124.63542 569.4344 124.44792Q569.60626 124.26042 569.91876 124.26042Q570.23126 124.26042 570.3875 124.44792Q570.5594 124.63542 570.5594 124.90105Q570.5594 125.15105 570.3875 125.33855Q570.23126 125.51042 569.91876 125.51042Q569.60626 125.51042 569.4344 125.33855Q569.27814 125.15105 569.27814 124.90105ZM573.7469 125.04167L573.7469 126.57292L574.91876 126.57292L574.91876 127.41667L573.7469 127.41667L573.7469 131.33855Q573.7469 131.72917 573.90314 131.91667Q574.0594 132.10417 574.4344 132.10417Q574.6219 132.10417 574.95 132.04167L574.95 132.91667Q574.52814 133.04167 574.1219 133.04167Q573.40314 133.04167 573.02814 132.60417Q572.65314 132.15105 572.65314 131.33855L572.65314 127.41667L571.4969 127.41667L571.4969 126.57292L572.65314 126.57292L572.65314 125.04167L573.7469 125.04167ZM578.34064 131.32292L579.825 126.57292L580.98126 126.57292L578.4344 133.90105Q577.84064 135.47917 576.5594 135.47917L576.34064 135.46355L575.95 135.38542L575.95 134.51042L576.23126 134.52605Q576.79376 134.52605 577.09064 134.3073Q577.40314 134.08855 577.60626 133.4948L577.84064 132.83855L575.575 126.57292L576.7625 126.57292L578.34064 131.32292Z" fill-rule="nonzero"/><path fill="#ccddee" d="M557.73126 146.1198L558.54376 146.1198Q559.325 146.10417 559.7625 145.71355Q560.2 145.32292 560.2 144.65105Q560.2 143.15105 558.7 143.15105Q557.9969 143.15105 557.575 143.5573Q557.16876 143.96355 557.16876 144.6198L556.075 144.6198Q556.075 143.60417 556.8094 142.9323Q557.5594 142.26042 558.7 142.26042Q559.90314 142.26042 560.59064 142.90105Q561.27814 143.54167 561.27814 144.6823Q561.27814 145.2448 560.91876 145.76042Q560.5594 146.27605 559.9344 146.54167Q560.6375 146.76042 561.0125 147.27605Q561.40314 147.79167 561.40314 148.54167Q561.40314 149.6823 560.65314 150.3698Q559.90314 151.04167 558.7 151.04167Q557.5125 151.04167 556.7469 150.38542Q555.9969 149.72917 555.9969 148.66667L557.09064 148.66667Q557.09064 149.33855 557.52814 149.7448Q557.96564 150.15105 558.71564 150.15105Q559.4969 150.15105 559.90314 149.7448Q560.325 149.32292 560.325 148.5573Q560.325 147.82292 559.8719 147.4323Q559.41876 147.02605 558.54376 147.01042L557.73126 147.01042L557.73126 146.1198ZM563.29376 150.35417Q563.29376 150.07292 563.45 149.88542Q563.6219 149.69792 563.95 149.69792Q564.29376 149.69792 564.46564 149.88542Q564.6375 150.07292 564.6375 150.35417Q564.6375 150.6198 564.46564 150.8073Q564.29376 150.97917 563.95 150.97917Q563.6219 150.97917 563.45 150.8073Q563.29376 150.6198 563.29376 150.35417ZM571.5125 147.27605Q571.5125 149.1823 570.85626 150.1198Q570.21564 151.04167 568.825 151.04167Q567.46564 151.04167 566.8094 150.13542Q566.15314 149.22917 566.1219 147.41667L566.1219 145.97917Q566.1219 144.08855 566.7625 143.1823Q567.41876 142.26042 568.8094 142.26042Q570.1844 142.26042 570.84064 143.15105Q571.4969 144.02605 571.5125 145.8698L571.5125 147.27605ZM570.41876 145.79167Q570.41876 144.41667 570.02814 143.79167Q569.65314 143.15105 568.8094 143.15105Q567.98126 143.15105 567.59064 143.79167Q567.21564 144.41667 567.21564 145.71355L567.21564 147.44792Q567.21564 148.82292 567.60626 149.4948Q568.0125 150.15105 568.825 150.15105Q569.6219 150.15105 570.0125 149.52605Q570.40314 148.90105 570.41876 147.57292L570.41876 145.79167ZM573.0594 144.02605Q573.0594 143.26042 573.54376 142.76042Q574.04376 142.26042 574.8094 142.26042Q575.59064 142.26042 576.075 142.76042Q576.5594 143.26042 576.5594 144.0573L576.5594 144.47917Q576.5594 145.2448 576.0594 145.7448Q575.575 146.22917 574.825 146.22917Q574.0594 146.22917 573.5594 145.7448Q573.0594 145.2448 573.0594 144.4323L573.0594 144.02605ZM573.8719 144.47917Q573.8719 144.9323 574.1219 145.22917Q574.3875 145.52605 574.825 145.52605Q575.2469 145.52605 575.4969 145.2448Q575.7469 144.94792 575.7469 144.44792L575.7469 144.02605Q575.7469 143.57292 575.4969 143.27605Q575.2469 142.96355 574.8094 142.96355Q574.3719 142.96355 574.1219 143.27605Q573.8719 143.57292 573.8719 144.04167L573.8719 144.47917ZM577.21564 148.82292Q577.21564 148.0573 577.7 147.57292Q578.2 147.07292 578.96564 147.07292Q579.73126 147.07292 580.21564 147.57292Q580.71564 148.0573 580.71564 148.8698L580.71564 149.27605Q580.71564 150.04167 580.23126 150.54167Q579.7469 151.04167 578.98126 151.04167Q578.21564 151.04167 577.71564 150.5573Q577.21564 150.0573 577.21564 149.2448L577.21564 148.82292ZM578.02814 149.27605Q578.02814 149.7448 578.27814 150.04167Q578.54376 150.33855 578.98126 150.33855Q579.40314 150.33855 579.65314 150.0573Q579.90314 149.76042 579.90314 149.26042L579.90314 148.82292Q579.90314 148.35417 579.6375 148.07292Q579.3875 147.77605 578.96564 147.77605Q578.54376 147.77605 578.27814 148.07292Q578.02814 148.35417 578.02814 148.85417L578.02814 149.27605ZM575.075 150.27605L574.45 149.88542L578.6219 143.21355L579.23126 143.60417L575.075 150.27605Z" fill-rule="nonzero"/><path stroke="#ccddee" stroke-width="1.0" stroke-linecap="butt" d="M581.45 137.41667L454.76666 137.41667L364.1617 104.37871" fill-rule="nonzero"/><path fill="#ccddee" d="M366.1617 104.37871C366.1617 103.27414 365.2663 102.37871 364.1617 102.37871C363.05716 102.37871 362.1617 103.27414 362.1617 104.37871C362.1617 105.48328 363.05716 106.37871 364.1617 106.37871C365.2663 106.37871 366.1617 105.48328 366.1617 104.37871" fill-rule="nonzero"/><path fill="#ffffff" d="M476.27814 203.87593L476.45 205.00093L476.6844 203.9853L478.3719 198.03218L479.325 198.03218L480.96564 203.9853L481.2 205.01656L481.3875 203.8603L482.71564 198.03218L483.84064 198.03218L481.77814 206.56343L480.7469 206.56343L478.98126 200.34468L478.85626 199.68843L478.71564 200.34468L476.90314 206.56343L475.8719 206.56343L473.8094 198.03218L474.9344 198.03218L476.27814 203.87593ZM484.98126 203.32906Q484.98126 202.40718 485.34064 201.65718Q485.71564 200.90718 486.3719 200.51656Q487.02814 200.1103 487.85626 200.1103Q489.15314 200.1103 489.95 201.00093Q490.7625 201.89156 490.7625 203.39156L490.7625 203.46968Q490.7625 204.39156 490.40314 205.12593Q490.04376 205.8603 489.3875 206.28218Q488.73126 206.68843 487.8719 206.68843Q486.59064 206.68843 485.77814 205.7978Q484.98126 204.89156 484.98126 203.40718L484.98126 203.32906ZM486.075 203.46968Q486.075 204.51656 486.5594 205.15718Q487.0594 205.7978 487.8719 205.7978Q488.7 205.7978 489.1844 205.15718Q489.66876 204.50093 489.66876 203.32906Q489.66876 202.2978 489.16876 201.65718Q488.6844 201.00093 487.85626 201.00093Q487.0594 201.00093 486.5594 201.64156Q486.075 202.26656 486.075 203.46968ZM495.34064 201.18843Q495.09064 201.15718 494.8094 201.15718Q493.73126 201.15718 493.35626 202.06343L493.35626 206.56343L492.27814 206.56343L492.27814 200.21968L493.325 200.21968L493.34064 200.95406Q493.8719 200.1103 494.85626 200.1103Q495.16876 200.1103 495.34064 200.18843L495.34064 201.18843ZM497.45 206.56343L496.3719 206.56343L496.3719 197.56343L497.45 197.56343L497.45 206.56343ZM499.0125 203.34468Q499.0125 201.87593 499.7 201.00093Q500.3875 200.1103 501.5125 200.1103Q502.6219 200.1103 503.27814 200.8603L503.27814 197.56343L504.35626 197.56343L504.35626 206.56343L503.35626 206.56343L503.3094 205.87593Q502.65314 206.68843 501.4969 206.68843Q500.40314 206.68843 499.7 205.78218Q499.0125 204.87593 499.0125 203.4228L499.0125 203.34468ZM500.09064 203.46968Q500.09064 204.5478 500.52814 205.15718Q500.98126 205.76656 501.7625 205.76656Q502.79376 205.76656 503.27814 204.82906L503.27814 201.9228Q502.79376 201.03218 501.77814 201.03218Q500.98126 201.03218 500.52814 201.64156Q500.09064 202.25093 500.09064 203.46968ZM511.95 202.76656Q510.5125 202.34468 509.84064 201.7353Q509.1844 201.12593 509.1844 200.2353Q509.1844 199.2353 509.98126 198.57906Q510.79376 197.90718 512.09064 197.90718Q512.96564 197.90718 513.65314 198.25093Q514.34064 198.59468 514.71564 199.18843Q515.10626 199.78218 515.10626 200.50093L513.96564 200.50093Q513.96564 199.71968 513.46564 199.28218Q512.98126 198.84468 512.09064 198.84468Q511.2625 198.84468 510.79376 199.21968Q510.325 199.57906 510.325 200.21968Q510.325 200.75093 510.7625 201.1103Q511.21564 201.46968 512.27814 201.76656Q513.34064 202.06343 513.9344 202.4228Q514.54376 202.78218 514.825 203.26656Q515.1219 203.75093 515.1219 204.39156Q515.1219 205.43843 514.3094 206.06343Q513.4969 206.68843 512.15314 206.68843Q511.2625 206.68843 510.4969 206.34468Q509.7469 206.00093 509.325 205.4228Q508.91876 204.82906 508.91876 204.09468L510.04376 204.09468Q510.04376 204.8603 510.6219 205.31343Q511.2 205.76656 512.15314 205.76656Q513.04376 205.76656 513.5125 205.40718Q513.98126 205.03218 513.98126 204.40718Q513.98126 203.78218 513.54376 203.43843Q513.10626 203.09468 511.95 202.76656ZM517.7469 198.68843L517.7469 200.21968L518.91876 200.21968L518.91876 201.06343L517.7469 201.06343L517.7469 204.9853Q517.7469 205.37593 517.90314 205.56343Q518.0594 205.75093 518.4344 205.75093Q518.6219 205.75093 518.95 205.68843L518.95 206.56343Q518.52814 206.68843 518.1219 206.68843Q517.40314 206.68843 517.02814 206.25093Q516.65314 205.7978 516.65314 204.9853L516.65314 201.06343L515.4969 201.06343L515.4969 200.21968L516.65314 200.21968L516.65314 198.68843L517.7469 198.68843ZM524.1844 206.56343Q524.09064 206.37593 524.02814 205.89156Q523.27814 206.68843 522.23126 206.68843Q521.29376 206.68843 520.6844 206.15718Q520.09064 205.62593 520.09064 204.7978Q520.09064 203.81343 520.84064 203.26656Q521.59064 202.71968 522.96564 202.71968L524.0125 202.71968L524.0125 202.21968Q524.0125 201.65718 523.66876 201.32906Q523.34064 200.9853 522.66876 200.9853Q522.09064 200.9853 521.7 201.28218Q521.3094 201.56343 521.3094 201.9853L520.21564 201.9853Q520.21564 201.50093 520.54376 201.06343Q520.8875 200.62593 521.46564 200.37593Q522.04376 200.1103 522.73126 200.1103Q523.84064 200.1103 524.45 200.65718Q525.075 201.20406 525.10626 202.15718L525.10626 205.07906Q525.10626 205.95406 525.325 206.46968L525.325 206.56343L524.1844 206.56343ZM522.3875 205.7353Q522.90314 205.7353 523.35626 205.46968Q523.8094 205.20406 524.0125 204.78218L524.0125 203.4853L523.16876 203.4853Q521.16876 203.4853 521.16876 204.65718Q521.16876 205.15718 521.5125 205.45406Q521.85626 205.7353 522.3875 205.7353ZM529.04376 203.62593L528.35626 204.32906L528.35626 206.56343L527.27814 206.56343L527.27814 197.56343L528.35626 197.56343L528.35626 203.00093L528.9344 202.31343L530.91876 200.21968L532.23126 200.21968L529.7625 202.87593L532.52814 206.56343L531.2469 206.56343L529.04376 203.62593ZM535.90314 206.68843Q534.60626 206.68843 533.79376 205.84468Q532.9969 204.9853 532.9969 203.56343L532.9969 203.37593Q532.9969 202.4228 533.35626 201.68843Q533.71564 200.93843 534.35626 200.53218Q535.0125 200.1103 535.7625 200.1103Q536.9969 200.1103 537.6844 200.9228Q538.3719 201.7353 538.3719 203.25093L538.3719 203.70406L534.075 203.70406Q534.10626 204.64156 534.6219 205.21968Q535.15314 205.7978 535.96564 205.7978Q536.52814 205.7978 536.91876 205.56343Q537.325 205.32906 537.6375 204.93843L538.29376 205.45406Q537.4969 206.68843 535.90314 206.68843ZM535.7625 201.00093Q535.10626 201.00093 534.65314 201.4853Q534.21564 201.95406 534.1219 202.81343L537.29376 202.81343L537.29376 202.7353Q537.2469 201.90718 536.84064 201.45406Q536.45 201.00093 535.7625 201.00093ZM548.9969 202.57906Q548.9969 203.82906 548.575 204.76656Q548.15314 205.68843 547.3719 206.18843Q546.60626 206.68843 545.575 206.68843Q544.575 206.68843 543.79376 206.18843Q543.0125 205.68843 542.575 204.78218Q542.15314 203.8603 542.1375 202.64156L542.1375 202.03218Q542.1375 200.7978 542.5594 199.8603Q542.9969 198.9228 543.77814 198.4228Q544.5594 197.90718 545.575 197.90718Q546.59064 197.90718 547.3719 198.40718Q548.15314 198.90718 548.575 199.84468Q548.9969 200.78218 548.9969 202.03218L548.9969 202.57906ZM547.8875 202.01656Q547.8875 200.50093 547.27814 199.68843Q546.66876 198.87593 545.575 198.87593Q544.4969 198.87593 543.8875 199.68843Q543.27814 200.50093 543.2625 201.93843L543.2625 202.57906Q543.2625 204.0478 543.8719 204.89156Q544.4969 205.71968 545.575 205.71968Q546.66876 205.71968 547.2625 204.93843Q547.8719 204.14156 547.8875 202.65718L547.8875 202.01656ZM555.8875 205.06343L557.10626 200.21968L558.1844 200.21968L556.34064 206.56343L555.46564 206.56343L553.91876 201.75093L552.41876 206.56343L551.54376 206.56343L549.7 200.21968L550.77814 200.21968L552.02814 204.96968L553.5125 200.21968L554.3719 200.21968L555.8875 205.06343ZM560.29376 200.21968L560.325 201.01656Q561.0594 200.1103 562.23126 200.1103Q564.2469 200.1103 564.2625 202.37593L564.2625 206.56343L563.16876 206.56343L563.16876 202.3603Q563.16876 201.68843 562.85626 201.3603Q562.5594 201.03218 561.90314 201.03218Q561.3719 201.03218 560.96564 201.31343Q560.575 201.59468 560.35626 202.0478L560.35626 206.56343L559.27814 206.56343L559.27814 200.21968L560.29376 200.21968ZM568.90314 206.68843Q567.60626 206.68843 566.79376 205.84468Q565.9969 204.9853 565.9969 203.56343L565.9969 203.37593Q565.9969 202.4228 566.35626 201.68843Q566.71564 200.93843 567.35626 200.53218Q568.0125 200.1103 568.7625 200.1103Q569.9969 200.1103 570.6844 200.9228Q571.3719 201.7353 571.3719 203.25093L571.3719 203.70406L567.075 203.70406Q567.10626 204.64156 567.6219 205.21968Q568.15314 205.7978 568.96564 205.7978Q569.52814 205.7978 569.91876 205.56343Q570.325 205.32906 570.6375 204.93843L571.29376 205.45406Q570.4969 206.68843 568.90314 206.68843ZM568.7625 201.00093Q568.10626 201.00093 567.65314 201.4853Q567.21564 201.95406 567.1219 202.81343L570.29376 202.81343L570.29376 202.7353Q570.2469 201.90718 569.84064 201.45406Q569.45 201.00093 568.7625 201.00093ZM575.34064 201.18843Q575.09064 201.15718 574.8094 201.15718Q573.73126 201.15718 573.35626 202.06343L573.35626 206.56343L572.27814 206.56343L572.27814 200.21968L573.325 200.21968L573.34064 200.95406Q573.8719 200.1103 574.85626 200.1103Q575.16876 200.1103 575.34064 200.18843L575.34064 201.18843ZM579.96564 204.87593Q579.96564 204.43843 579.6219 204.20406Q579.29376 203.95406 578.46564 203.78218Q577.65314 203.6103 577.16876 203.3603Q576.6844 203.1103 576.45 202.78218Q576.23126 202.43843 576.23126 201.96968Q576.23126 201.18843 576.8875 200.65718Q577.54376 200.1103 578.575 200.1103Q579.65314 200.1103 580.3094 200.6728Q580.98126 201.21968 580.98126 202.07906L579.90314 202.07906Q579.90314 201.64156 579.5125 201.32906Q579.1375 201.00093 578.575 201.00093Q577.98126 201.00093 577.6375 201.26656Q577.3094 201.51656 577.3094 201.9228Q577.3094 202.31343 577.6219 202.51656Q577.9344 202.71968 578.7469 202.90718Q579.5594 203.07906 580.0594 203.32906Q580.5594 203.57906 580.79376 203.93843Q581.04376 204.2978 581.04376 204.7978Q581.04376 205.65718 580.35626 206.1728Q579.6844 206.68843 578.60626 206.68843Q577.84064 206.68843 577.2469 206.4228Q576.66876 206.14156 576.34064 205.65718Q576.0125 205.1728 576.0125 204.6103L577.09064 204.6103Q577.1219 205.15718 577.52814 205.4853Q577.9344 205.7978 578.60626 205.7978Q579.21564 205.7978 579.59064 205.5478Q579.96564 205.2978 579.96564 204.87593Z" fill-rule="nonzero"/><path fill="#ccddee" d="M550.73126 219.76656L551.54376 219.76656Q552.325 219.75093 552.7625 219.3603Q553.2 218.96968 553.2 218.2978Q553.2 216.7978 551.7 216.7978Q550.9969 216.7978 550.575 217.20406Q550.16876 217.6103 550.16876 218.26656L549.075 218.26656Q549.075 217.25093 549.8094 216.57906Q550.5594 215.90718 551.7 215.90718Q552.90314 215.90718 553.59064 216.5478Q554.27814 217.18843 554.27814 218.32906Q554.27814 218.89156 553.91876 219.40718Q553.5594 219.9228 552.9344 220.18843Q553.6375 220.40718 554.0125 220.9228Q554.40314 221.43843 554.40314 222.18843Q554.40314 223.32906 553.65314 224.01656Q552.90314 224.68843 551.7 224.68843Q550.5125 224.68843 549.7469 224.03218Q548.9969 223.37593 548.9969 222.31343L550.09064 222.31343Q550.09064 222.9853 550.52814 223.39156Q550.96564 223.7978 551.71564 223.7978Q552.4969 223.7978 552.90314 223.39156Q553.325 222.96968 553.325 222.20406Q553.325 221.46968 552.8719 221.07906Q552.41876 220.6728 551.54376 220.65718L550.73126 220.65718L550.73126 219.76656ZM560.41876 216.03218L560.41876 216.93843L560.21564 216.93843Q558.95 216.96968 558.2 217.70406Q557.45 218.4228 557.325 219.7353Q558.0125 218.96968 559.16876 218.96968Q560.27814 218.96968 560.95 219.75093Q561.6219 220.53218 561.6219 221.78218Q561.6219 223.09468 560.90314 223.89156Q560.1844 224.68843 558.96564 224.68843Q557.7469 224.68843 556.98126 223.75093Q556.23126 222.7978 556.23126 221.31343L556.23126 220.90718Q556.23126 218.5478 557.23126 217.2978Q558.23126 216.0478 560.21564 216.03218L560.41876 216.03218ZM558.9969 219.87593Q558.4344 219.87593 557.96564 220.20406Q557.4969 220.53218 557.3094 221.0478L557.3094 221.43843Q557.3094 222.50093 557.77814 223.14156Q558.2625 223.78218 558.96564 223.78218Q559.7 223.78218 560.1219 223.25093Q560.54376 222.70406 560.54376 221.82906Q560.54376 220.95406 560.1219 220.4228Q559.7 219.87593 558.9969 219.87593ZM563.29376 224.00093Q563.29376 223.71968 563.45 223.53218Q563.6219 223.34468 563.95 223.34468Q564.29376 223.34468 564.46564 223.53218Q564.6375 223.71968 564.6375 224.00093Q564.6375 224.26656 564.46564 224.45406Q564.29376 224.62593 563.95 224.62593Q563.6219 224.62593 563.45 224.45406Q563.29376 224.26656 563.29376 224.00093ZM571.5125 220.9228Q571.5125 222.82906 570.85626 223.76656Q570.21564 224.68843 568.825 224.68843Q567.46564 224.68843 566.8094 223.78218Q566.15314 222.87593 566.1219 221.06343L566.1219 219.62593Q566.1219 217.7353 566.7625 216.82906Q567.41876 215.90718 568.8094 215.90718Q570.1844 215.90718 570.84064 216.7978Q571.4969 217.6728 571.5125 219.51656L571.5125 220.9228ZM570.41876 219.43843Q570.41876 218.06343 570.02814 217.43843Q569.65314 216.7978 568.8094 216.7978Q567.98126 216.7978 567.59064 217.43843Q567.21564 218.06343 567.21564 219.3603L567.21564 221.09468Q567.21564 222.46968 567.60626 223.14156Q568.0125 223.7978 568.825 223.7978Q569.6219 223.7978 570.0125 223.1728Q570.40314 222.5478 570.41876 221.21968L570.41876 219.43843ZM573.0594 217.6728Q573.0594 216.90718 573.54376 216.40718Q574.04376 215.90718 574.8094 215.90718Q575.59064 215.90718 576.075 216.40718Q576.5594 216.90718 576.5594 217.70406L576.5594 218.12593Q576.5594 218.89156 576.0594 219.39156Q575.575 219.87593 574.825 219.87593Q574.0594 219.87593 573.5594 219.39156Q573.0594 218.89156 573.0594 218.07906L573.0594 217.6728ZM573.8719 218.12593Q573.8719 218.57906 574.1219 218.87593Q574.3875 219.1728 574.825 219.1728Q575.2469 219.1728 575.4969 218.89156Q575.7469 218.59468 575.7469 218.09468L575.7469 217.6728Q575.7469 217.21968 575.4969 216.9228Q575.2469 216.6103 574.8094 216.6103Q574.3719 216.6103 574.1219 216.9228Q573.8719 217.21968 573.8719 217.68843L573.8719 218.12593ZM577.21564 222.46968Q577.21564 221.70406 577.7 221.21968Q578.2 220.71968 578.96564 220.71968Q579.73126 220.71968 580.21564 221.21968Q580.71564 221.70406 580.71564 222.51656L580.71564 222.9228Q580.71564 223.68843 580.23126 224.18843Q579.7469 224.68843 578.98126 224.68843Q578.21564 224.68843 577.71564 224.20406Q577.21564 223.70406 577.21564 222.89156L577.21564 222.46968ZM578.02814 222.9228Q578.02814 223.39156 578.27814 223.68843Q578.54376 223.9853 578.98126 223.9853Q579.40314 223.9853 579.65314 223.70406Q579.90314 223.40718 579.90314 222.90718L579.90314 222.46968Q579.90314 222.00093 579.6375 221.71968Q579.3875 221.4228 578.96564 221.4228Q578.54376 221.4228 578.27814 221.71968Q578.02814 222.00093 578.02814 222.50093L578.02814 222.9228ZM575.075 223.9228L574.45 223.53218L578.6219 216.8603L579.23126 217.25093L575.075 223.9228Z" fill-rule="nonzero"/><path stroke="#ccddee" stroke-width="1.0" stroke-linecap="butt" d="M581.45 211.06343L454.76666 211.06343L438.825 211.06343" fill-rule="nonzero"/><path fill="#ccddee" d="M440.825 211.06343C440.825 209.95886 439.9296 209.06343 438.825 209.06343C437.72046 209.06343 436.825 209.95886 436.825 211.06343C436.825 212.168 437.72046 213.06343 438.825 213.06343C439.9296 213.06343 440.825 212.168 440.825 211.06343" fill-rule="nonzero"/><path fill="#ffffff" d="M25.675 37.55L23.846874 37.55L23.846874 25.503124L20.20625 26.846874L20.20625 25.20625L25.39375 23.26875L25.675 23.26875L25.675 37.55ZM36.20625 37.55L36.20625 23.33125L40.846874 23.33125Q43.159374 23.33125 44.33125 24.284374Q45.503124 25.2375 45.503124 27.1125Q45.503124 28.1125 44.925 28.878124Q44.3625 29.64375 43.39375 30.065624Q44.534374 30.39375 45.20625 31.3Q45.878124 32.190624 45.878124 33.440624Q45.878124 35.3625 44.628124 36.45625Q43.39375 37.55 41.128124 37.55L36.20625 37.55ZM38.08125 30.89375L38.08125 36.01875L41.175 36.01875Q42.4875 36.01875 43.2375 35.346874Q43.9875 34.659374 43.9875 33.471874Q43.9875 30.89375 41.20625 30.89375L38.08125 30.89375ZM38.08125 29.39375L40.909374 29.39375Q42.14375 29.39375 42.878124 28.784374Q43.6125 28.159374 43.6125 27.1125Q43.6125 25.940624 42.925 25.409374Q42.253124 24.878124 40.846874 24.878124L38.08125 24.878124L38.08125 29.39375ZM49.878124 37.55L48.08125 37.55L48.08125 26.9875L49.878124 26.9875L49.878124 37.55ZM47.925 24.175Q47.925 23.7375 48.190624 23.440624Q48.471874 23.128124 48.9875 23.128124Q49.51875 23.128124 49.784374 23.440624Q50.065624 23.7375 50.065624 24.175Q50.065624 24.6125 49.784374 24.909374Q49.51875 25.20625 48.9875 25.20625Q48.471874 25.20625 48.190624 24.909374Q47.925 24.6125 47.925 24.175ZM54.878124 37.55L53.08125 37.55L53.08125 22.55L54.878124 22.55L54.878124 37.55ZM59.878124 37.55L58.08125 37.55L58.08125 22.55L59.878124 22.55L59.878124 37.55ZM64.87813 37.55L63.08125 37.55L63.08125 26.9875L64.87813 26.9875L64.87813 37.55ZM62.925 24.175Q62.925 23.7375 63.190624 23.440624Q63.471874 23.128124 63.9875 23.128124Q64.51875 23.128124 64.78438 23.440624Q65.06563 23.7375 65.06563 24.175Q65.06563 24.6125 64.78438 24.909374Q64.51875 25.20625 63.9875 25.20625Q63.471874 25.20625 63.190624 24.909374Q62.925 24.6125 62.925 24.175ZM67.44063 32.175Q67.44063 30.6125 68.05 29.378124Q68.65938 28.128124 69.7375 27.45625Q70.83125 26.784374 72.2375 26.784374Q74.39375 26.784374 75.72188 28.284374Q77.06563 29.76875 77.06563 32.253124L77.06563 32.378124Q77.06563 33.925 76.47188 35.159374Q75.87813 36.378124 74.76875 37.065624Q73.675 37.753124 72.25313 37.753124Q70.1125 37.753124 68.76875 36.253124Q67.44063 34.753124 67.44063 32.3L67.44063 32.175ZM69.25313 32.378124Q69.25313 34.14375 70.06563 35.20625Q70.89375 36.26875 72.25313 36.26875Q73.62813 36.26875 74.44063 35.190624Q75.25313 34.1125 75.25313 32.175Q75.25313 30.425 74.425 29.346874Q73.59688 28.26875 72.2375 28.26875Q70.89375 28.26875 70.06563 29.33125Q69.25313 30.39375 69.25313 32.378124ZM80.62813 26.9875L80.69063 28.315624Q81.89375 26.784374 83.84688 26.784374Q87.20625 26.784374 87.22188 30.565624L87.22188 37.55L85.425 37.55L85.425 30.55Q85.40938 29.409374 84.89375 28.8625Q84.39375 28.315624 83.3 28.315624Q82.425 28.315624 81.75313 28.784374Q81.09688 29.253124 80.72188 30.01875L80.72188 37.55L78.925 37.55L78.925 26.9875L80.62813 26.9875ZM105.70625 35.690624Q104.97188 36.721874 103.675 37.2375Q102.39375 37.753124 100.675 37.753124Q98.925 37.753124 97.58125 36.940624Q96.2375 36.1125 95.50313 34.6125Q94.76875 33.1125 94.7375 31.128124L94.7375 29.878124Q94.7375 26.675 96.2375 24.909374Q97.7375 23.128124 100.45625 23.128124Q102.675 23.128124 104.03438 24.26875Q105.39375 25.409374 105.70625 27.503124L103.83125 27.503124Q103.3 24.675 100.47188 24.675Q98.58125 24.675 97.6125 26.003124Q96.64375 27.33125 96.62813 29.83125L96.62813 31.003124Q96.62813 33.39375 97.72188 34.8Q98.81563 36.20625 100.675 36.20625Q101.7375 36.20625 102.51875 35.971874Q103.31563 35.7375 103.83125 35.190624L103.83125 31.9875L100.55 31.9875L100.55 30.471874L105.70625 30.471874L105.70625 35.690624ZM117.2375 30.971874L111.08125 30.971874L111.08125 36.01875L118.2375 36.01875L118.2375 37.55L109.20625 37.55L109.20625 23.33125L118.14375 23.33125L118.14375 24.878124L111.08125 24.878124L111.08125 29.440624L117.2375 29.440624L117.2375 30.971874ZM131.12813 37.55L129.2375 37.55L122.08125 26.596874L122.08125 37.55L120.20625 37.55L120.20625 23.33125L122.08125 23.33125L129.26875 34.33125L129.26875 23.33125L131.12813 23.33125L131.12813 37.55ZM142.2375 30.971874L136.08125 30.971874L136.08125 36.01875L143.2375 36.01875L143.2375 37.55L134.20625 37.55L134.20625 23.33125L143.14375 23.33125L143.14375 24.878124L136.08125 24.878124L136.08125 29.440624L142.2375 29.440624L142.2375 30.971874ZM149.39375 31.20625Q146.97188 30.51875 145.87813 29.51875Q144.78438 28.503124 144.78438 27.01875Q144.78438 25.33125 146.12813 24.2375Q147.47188 23.128124 149.6125 23.128124Q151.08125 23.128124 152.22188 23.70625Q153.37813 24.26875 154.00313 25.26875Q154.62813 26.253124 154.62813 27.440624L152.75313 27.440624Q152.75313 26.159374 151.925 25.425Q151.1125 24.675 149.6125 24.675Q148.22188 24.675 147.44063 25.284374Q146.675 25.89375 146.675 26.9875Q146.675 27.846874 147.40938 28.45625Q148.14375 29.05 149.90938 29.55Q151.69063 30.05 152.69063 30.659374Q153.69063 31.253124 154.175 32.05Q154.65938 32.846874 154.65938 33.940624Q154.65938 35.659374 153.31563 36.70625Q151.97188 37.753124 149.70625 37.753124Q148.25313 37.753124 146.97188 37.190624Q145.70625 36.628124 145.01875 35.659374Q144.33125 34.675 144.33125 33.425L146.22188 33.425Q146.22188 34.721874 147.175 35.471874Q148.12813 36.20625 149.70625 36.20625Q151.19063 36.20625 151.9875 35.6125Q152.78438 35.003124 152.78438 33.95625Q152.78438 32.909374 152.05 32.346874Q151.31563 31.76875 149.39375 31.20625ZM159.20625 37.55L157.33125 37.55L157.33125 23.33125L159.20625 23.33125L159.20625 37.55ZM166.39375 31.20625Q163.97188 30.51875 162.87813 29.51875Q161.78438 28.503124 161.78438 27.01875Q161.78438 25.33125 163.12813 24.2375Q164.47188 23.128124 166.6125 23.128124Q168.08125 23.128124 169.22188 23.70625Q170.37813 24.26875 171.00313 25.26875Q171.62813 26.253124 171.62813 27.440624L169.75313 27.440624Q169.75313 26.159374 168.925 25.425Q168.1125 24.675 166.6125 24.675Q165.22188 24.675 164.44063 25.284374Q163.675 25.89375 163.675 26.9875Q163.675 27.846874 164.40938 28.45625Q165.14375 29.05 166.90938 29.55Q168.69063 30.05 169.69063 30.659374Q170.69063 31.253124 171.175 32.05Q171.65938 32.846874 171.65938 33.940624Q171.65938 35.659374 170.31563 36.70625Q168.97188 37.753124 166.70625 37.753124Q165.25313 37.753124 163.97188 37.190624Q162.70625 36.628124 162.01875 35.659374Q161.33125 34.675 161.33125 33.425L163.22188 33.425Q163.22188 34.721874 164.175 35.471874Q165.12813 36.20625 166.70625 36.20625Q168.19063 36.20625 168.9875 35.6125Q169.78438 35.003124 169.78438 33.95625Q169.78438 32.909374 169.05 32.346874Q168.31563 31.76875 166.39375 31.20625ZM187.2375 30.971874L181.08125 30.971874L181.08125 36.01875L188.2375 36.01875L188.2375 37.55L179.20625 37.55L179.20625 23.33125L188.14375 23.33125L188.14375 24.878124L181.08125 24.878124L181.08125 29.440624L187.2375 29.440624L187.2375 30.971874ZM191.6125 26.9875L191.65938 28.159374Q192.83125 26.784374 194.8 26.784374Q197.01875 26.784374 197.81563 28.4875Q198.34688 27.721874 199.19063 27.253124Q200.03438 26.784374 201.19063 26.784374Q204.65938 26.784374 204.72188 30.471874L204.72188 37.55L202.90938 37.55L202.90938 30.58125Q202.90938 29.440624 202.39375 28.878124Q201.87813 28.315624 200.65938 28.315624Q199.65938 28.315624 198.9875 28.925Q198.33125 29.51875 198.22188 30.534374L198.22188 37.55L196.40938 37.55L196.40938 30.628124Q196.40938 28.315624 194.14375 28.315624Q192.3625 28.315624 191.72188 29.83125L191.72188 37.55L189.90938 37.55L189.90938 26.9875L191.6125 26.9875ZM209.87813 37.55L208.08125 37.55L208.08125 26.9875L209.87813 26.9875L209.87813 37.55ZM207.925 24.175Q207.925 23.7375 208.19063 23.440624Q208.47188 23.128124 208.9875 23.128124Q209.51875 23.128124 209.78438 23.440624Q210.06563 23.7375 210.06563 24.175Q210.06563 24.6125 209.78438 24.909374Q209.51875 25.20625 208.9875 25.20625Q208.47188 25.20625 208.19063 24.909374Q207.925 24.6125 207.925 24.175ZM219.06563 34.753124Q219.06563 34.01875 218.51875 33.6125Q217.97188 33.20625 216.59688 32.909374Q215.22188 32.6125 214.40938 32.20625Q213.6125 31.8 213.22188 31.2375Q212.84688 30.659374 212.84688 29.878124Q212.84688 28.58125 213.94063 27.690624Q215.03438 26.784374 216.75313 26.784374Q218.55 26.784374 219.65938 27.721874Q220.78438 28.64375 220.78438 30.08125L218.95625 30.08125Q218.95625 29.346874 218.33125 28.815624Q217.70625 28.26875 216.75313 28.26875Q215.75313 28.26875 215.19063 28.70625Q214.64375 29.128124 214.64375 29.83125Q214.64375 30.471874 215.15938 30.815624Q215.675 31.14375 217.03438 31.45625Q218.39375 31.753124 219.22188 32.175Q220.06563 32.58125 220.47188 33.175Q220.87813 33.76875 220.87813 34.6125Q220.87813 36.034374 219.7375 36.89375Q218.6125 37.753124 216.8 37.753124Q215.53438 37.753124 214.55 37.3Q213.58125 36.846874 213.01875 36.05Q212.47188 35.2375 212.47188 34.3L214.28438 34.3Q214.33125 35.20625 215.00313 35.7375Q215.69063 36.26875 216.8 36.26875Q217.83125 36.26875 218.44063 35.8625Q219.06563 35.440624 219.06563 34.753124ZM229.06563 34.753124Q229.06563 34.01875 228.51875 33.6125Q227.97188 33.20625 226.59688 32.909374Q225.22188 32.6125 224.40938 32.20625Q223.6125 31.8 223.22188 31.2375Q222.84688 30.659374 222.84688 29.878124Q222.84688 28.58125 223.94063 27.690624Q225.03438 26.784374 226.75313 26.784374Q228.55 26.784374 229.65938 27.721874Q230.78438 28.64375 230.78438 30.08125L228.95625 30.08125Q228.95625 29.346874 228.33125 28.815624Q227.70625 28.26875 226.75313 28.26875Q225.75313 28.26875 225.19063 28.70625Q224.64375 29.128124 224.64375 29.83125Q224.64375 30.471874 225.15938 30.815624Q225.675 31.14375 227.03438 31.45625Q228.39375 31.753124 229.22188 32.175Q230.06563 32.58125 230.47188 33.175Q230.87813 33.76875 230.87813 34.6125Q230.87813 36.034374 229.7375 36.89375Q228.6125 37.753124 226.8 37.753124Q225.53438 37.753124 224.55 37.3Q223.58125 36.846874 223.01875 36.05Q222.47188 35.2375 222.47188 34.3L224.28438 34.3Q224.33125 35.20625 225.00313 35.7375Q225.69063 36.26875 226.8 36.26875Q227.83125 36.26875 228.44063 35.8625Q229.06563 35.440624 229.06563 34.753124ZM234.87813 37.55L233.08125 37.55L233.08125 26.9875L234.87813 26.9875L234.87813 37.55ZM232.925 24.175Q232.925 23.7375 233.19063 23.440624Q233.47188 23.128124 233.9875 23.128124Q234.51875 23.128124 234.78438 23.440624Q235.06563 23.7375 235.06563 24.175Q235.06563 24.6125 234.78438 24.909374Q234.51875 25.20625 233.9875 25.20625Q233.47188 25.20625 233.19063 24.909374Q232.925 24.6125 232.925 24.175ZM237.44063 32.175Q237.44063 30.6125 238.05 29.378124Q238.65938 28.128124 239.7375 27.45625Q240.83125 26.784374 242.2375 26.784374Q244.39375 26.784374 245.72188 28.284374Q247.06563 29.76875 247.06563 32.253124L247.06563 32.378124Q247.06563 33.925 246.47188 35.159374Q245.87813 36.378124 244.76875 37.065624Q243.675 37.753124 242.25313 37.753124Q240.1125 37.753124 238.76875 36.253124Q237.44063 34.753124 237.44063 32.3L237.44063 32.175ZM239.25313 32.378124Q239.25313 34.14375 240.06563 35.20625Q240.89375 36.26875 242.25313 36.26875Q243.62813 36.26875 244.44063 35.190624Q245.25313 34.1125 245.25313 32.175Q245.25313 30.425 244.425 29.346874Q243.59688 28.26875 242.2375 28.26875Q240.89375 28.26875 240.06563 29.33125Q239.25313 30.39375 239.25313 32.378124ZM250.62813 26.9875L250.69063 28.315624Q251.89375 26.784374 253.84688 26.784374Q257.20624 26.784374 257.22186 30.565624L257.22186 37.55L255.425 37.55L255.425 30.55Q255.40938 29.409374 254.89375 28.8625Q254.39375 28.315624 253.3 28.315624Q252.425 28.315624 251.75313 28.784374Q251.09688 29.253124 250.72188 30.01875L250.72188 37.55L248.925 37.55L248.925 26.9875L250.62813 26.9875ZM266.0656 34.753124Q266.0656 34.01875 265.51874 33.6125Q264.97186 33.20625 263.59686 32.909374Q262.22186 32.6125 261.40936 32.20625Q260.6125 31.8 260.22186 31.2375Q259.84686 30.659374 259.84686 29.878124Q259.84686 28.58125 260.9406 27.690624Q262.03436 26.784374 263.7531 26.784374Q265.55 26.784374 266.65936 27.721874Q267.78436 28.64375 267.78436 30.08125L265.95624 30.08125Q265.95624 29.346874 265.33124 28.815624Q264.70624 28.26875 263.7531 28.26875Q262.7531 28.26875 262.1906 28.70625Q261.64374 29.128124 261.64374 29.83125Q261.64374 30.471874 262.15936 30.815624Q262.675 31.14375 264.03436 31.45625Q265.39374 31.753124 266.22186 32.175Q267.0656 32.58125 267.47186 33.175Q267.8781 33.76875 267.8781 34.6125Q267.8781 36.034374 266.7375 36.89375Q265.6125 37.753124 263.8 37.753124Q262.53436 37.753124 261.55 37.3Q260.58124 36.846874 260.01874 36.05Q259.47186 35.2375 259.47186 34.3L261.28436 34.3Q261.33124 35.20625 262.0031 35.7375Q262.6906 36.26875 263.8 36.26875Q264.83124 36.26875 265.4406 35.8625Q266.0656 35.440624 266.0656 34.753124Z" fill-rule="nonzero"/></svg>