<?xml version="1.0" standalone="no"?>
<!DOCTYPE svg PUBLIC "-//W3C//DTD SVG 20010904//EN"
 "http://www.w3.org/TR/2001/REC-SVG-20010904/DTD/svg10.dtd">
<svg version="1.0" xmlns="http://www.w3.org/2000/svg"
 width="1590.000000pt" height="1590.000000pt" viewBox="0 0 1590.000000 1590.000000"
 preserveAspectRatio="xMidYMid meet">
<metadata>
Created by potrace 1.14, written by Peter Selinger 2001-2017
</metadata>
<g transform="translate(0.000000,1590.000000) scale(0.100000,-0.100000)"
fill="#000000" stroke="none">
<path d="M7705 15814 c-44 -2 -159 -8 -255 -14 -1859 -113 -3616 -892 -4964
-2200 -1126 -1092 -1898 -2497 -2215 -4030 -160 -775 -202 -1609 -120 -2410
165 -1625 837 -3155 1929 -4390 145 -164 470 -490 640 -642 1129 -1010 2501
-1663 3995 -1902 647 -103 1378 -123 2044 -55 2059 210 3938 1221 5266 2834
286 347 584 789 809 1198 1021 1860 1241 4091 604 6121 -128 408 -271 760
-474 1166 -258 514 -538 951 -895 1395 -1294 1610 -3161 2643 -5206 2880 -315
36 -888 61 -1158 49z m627 -4110 c856 -84 1641 -457 2259 -1074 593 -592 956
-1309 1073 -2120 54 -376 45 -813 -25 -1210 -104 -592 -374 -1184 -763 -1672
l-61 -77 -462 -1 -463 0 0 1140 0 1140 -1140 0 -1140 0 0 1140 0 1140 -1140 0
-1140 0 0 274 0 274 94 85 c596 539 1310 862 2116 958 244 29 516 30 792 3z"/>
</g>
</svg>
